<?xml version="1.0" encoding="UTF-8"?>
<svg id="Layer_1" xmlns="http://www.w3.org/2000/svg" viewBox="0 0 449.83 806.43">
  <defs>
    <style>
      .cls-1 {
        stroke: red;
      }

      .cls-1, .cls-2, .cls-3 {
        fill: none;
        stroke-linecap: round;
        stroke-linejoin: round;
        stroke-width: .26px;
      }

      .cls-2, .cls-3 {
        stroke: #000;
      }

      .cls-3 {
        stroke-dasharray: 7.2 7.2 7.2 7.2;
      }
    </style>
  </defs>
  <g id="SPLINE">
    <path class="cls-1" d="M297.51,580.42h-9.89v-1.82l7-2.17.65-.2c.49-.15.81-.24.81-.24-.36-.1-.89-.27-1.59-.49l-6.88-2.21h0v-1.63h9.89v1.17h-8.28l8.28,2.68v1.1h0l-8.43,2.65h8.43v1.17L.13,763.71l297.39-183.29Z"/>
  </g>
  <g id="SPLINE-2" data-name="SPLINE">
    <path class="cls-1" d="M297.51,569.5h-9.89v-1.22h9.89v1.22Z"/>
  </g>
  <g id="SPLINE-3" data-name="SPLINE">
    <path class="cls-1" d="M297.51,563.81h-8.73v3.03h-1.16v-7.28h1.16v3.03h8.73v1.22L.13,763.71l297.39-199.91Z"/>
  </g>
  <g id="SPLINE-4" data-name="SPLINE">
    <path class="cls-1" d="M297.51,554.95h-9.89v-6.63h1.16v5.41h3.04v-5.07h1.16v5.07h3.37v-5.63h1.16v6.85L.13,763.71l297.39-208.77Z"/>
  </g>
  <g id="SPLINE-5" data-name="SPLINE">
    <path class="cls-1" d="M297.51,542.26h-.91,0c.71.42,1.06,1.04,1.06,1.86,0,0,0,.53-.16,1.02q-.32.44-.63.89c-.44.34-1,.59-1,.59-.56.24-1.21.37-1.94.37,0,0-.71,0-1.36-.11q-.58-.22-1.16-.44c-.45-.33-.76-.77-.76-.77-.31-.44-.47-.94-.47-1.48,0,0,0-.4.09-.76q.18-.31.36-.62c.24-.25.53-.45.53-.45h-3.56v-1.13h9.89v1.05Z"/>
  </g>
  <g id="SPLINE-6" data-name="SPLINE">
    <path class="cls-1" d="M293.94,545.82c.92,0,1.6-.18,2.05-.54,0,0,.45-.36.68-.78v-.98c-.22-.42-.65-.77-.65-.77-.43-.34-1.09-.52-1.98-.52,0,0-.98,0-1.7.18q-.46.35-.92.7c-.23.43-.23.95-.23.95,0,.5.22.92.66,1.26,0,0,.44.34,1.13.5.95,0-292.86,217.89-292.86,217.89l293.81-217.89Z"/>
  </g>
  <g id="SPLINE-7" data-name="SPLINE">
    <path class="cls-1" d="M298.11,539.63l.17-1.09h0c.36-.05.63-.17.8-.38h0c.22-.28.34-.66.34-1.15,0,0,0-.52-.11-.93q-.22-.28-.45-.57c-.32-.19-.72-.29-.72-.29-.25-.06-.76-.09-1.55-.08,0,0,.63.49.94,1.11v1.65c-.35.71-1.07,1.21-1.07,1.21-.71.5-1.56.75-2.55.75,0,0-.68,0-1.31-.12q-.58-.23-1.16-.46c-.44-.33-.76-.77-.76-.77-.32-.44-.47-.95-.47-1.54,0,0,0-.79.35-1.43l.69-.51h-.88v-1.04h7.31c.79.1,1.26.32,1.26.32.47.21.83.55,1.1,1,0,0,.27.46.41,1.02v1.46c-.19.64-.58,1.13-.58,1.13-.38.49-.96.72-1.73.71Z"/>
  </g>
  <g id="SPLINE-8" data-name="SPLINE">
    <path class="cls-1" d="M293.81,538.7c.94,0,1.62-.17,2.05-.52,0,0,.43-.35.65-.78v-1.04c-.21-.43-.64-.79-.64-.79-.43-.35-1.1-.53-2.02-.53,0,0-.88,0-1.54.18l-.89.72c-.22.44-.22.95-.22.95,0,.5.22.93.66,1.28,0,0,.44.35,1.09.53.86,0-292.82,225.01-292.82,225.01l293.68-225.01Z"/>
  </g>
  <g id="SPLINE-9" data-name="SPLINE">
    <path class="cls-1" d="M295.19,527.74l.17-1.17h0c.73.18,1.3.52,1.7,1.02,0,0,.4.5.61,1.13v1.74c-.32.77-.97,1.34-.97,1.34-.64.57-1.55.85-2.71.85,0,0-1.2,0-2.14-.29q-.66-.58-1.33-1.15c-.33-.75-.33-1.66-.33-1.66,0-.89.32-1.61.98-2.18,0,0,.65-.56,1.57-.84h1.25c.11,0,.25,0,.25,0v4.96s.79-.04,1.39-.25q.42-.37.83-.74c.21-.46.21-1.02.21-1.02,0-.41-.12-.77-.35-1.06,0,0-.23-.29-.61-.52-.52-.17-295.58,235.8-295.58,235.8l295.07-235.97Z"/>
  </g>
  <g id="SPLINE-10" data-name="SPLINE">
    <path class="cls-1" d="M293.24,531.44v-3.71s-.6.05-1.05.19q-.3.23-.77.59c-.23.47-.23,1.04-.23,1.04,0,.52.19.95.56,1.3,0,0,.37.35.87.55q.63.04-60.21-60.8l60.84,60.84Z"/>
  </g>
  <g id="SPLINE-11" data-name="SPLINE">
    <path class="cls-1" d="M297.51,525.16h-7.17v-1.01h1.1l-.51-.26c-.34-.24-.5-.46-.5-.46-.16-.22-.24-.46-.24-.73,0,0,0-.38.13-.77l.26-.39,1.12.4c-.17.27-.25.55-.25.82,0,0,0,.25.08.47q.16.19.32.39c.22.14.5.22.5.22.43.13.9.19,1.42.19h3.75q0,1.13-297.39,239.68l297.39-238.56Z"/>
  </g>
  <g id="SPLINE-12" data-name="SPLINE">
    <path class="cls-1" d="M296.43,518.42l1.07-.15h0c.07.32.11.6.11.85h0c0,.41-.07.72-.21.95,0,0-.14.22-.32.38q-.23.09-.46.18c-.48.04-1.21.04-1.21.04h-4.13v.83h-.94v-.83h-1.77l-.73-1.13h2.5v-1.13h.94v1.13h4.55c.22-.02.32-.06.32-.06.1-.04.18-.1.24-.19,0,0,.06-.09.09-.22v-.29q-.02-.16-296.35,244.92l296.3-245.29Z"/>
  </g>
  <g id="SPLINE-13" data-name="SPLINE">
    <path class="cls-1" d="M293.93,517.73c-1.32,0-2.31-.34-2.94-1.03,0,0-.53-.57-.79-1.27v-1.74c.32-.75.97-1.33.97-1.33.64-.58,1.53-.87,2.67-.87,0,0,.92,0,1.64.13l1.05.51c.41.37.7.87.7.87.29.49.44,1.03.44,1.61,0,0,0,.93-.32,1.69q-.64.58-1.28,1.15c-.93.29-2.13.29-295.93,246.27l293.8-245.98Z"/>
  </g>
  <g id="SPLINE-14" data-name="SPLINE">
    <path class="cls-1" d="M293.93,516.58c.92,0,1.6-.19,2.06-.56,0,0,.46-.37.68-.84v-1.13c-.23-.47-.69-.84-.69-.84-.46-.37-1.16-.56-2.09-.56,0,0-.88,0-1.55.19q-.45.37-.91.75c-.23.47-.23,1.02-.23,1.02,0,.57.23,1.03.68,1.41,0,0,.45.37,1.14.56.91,0-292.89,247.14-292.89,247.14l293.8-247.14Z"/>
  </g>
  <g id="SPLINE-15" data-name="SPLINE">
    <path class="cls-1" d="M297.51,510.17h-7.17v-1.01h1.02l-.78-.49c-.39-.71-.39-1.63-.39-1.63,0-.4.08-.77.23-1.11,0,0,.15-.34.36-.59q.25-.17.5-.33c.3-.12.64-.18.64-.18.23-.04.62-.06,1.18-.06h4.4v1.13h-4.36s-.49,0-.87.04q-.24.09-.49.18c-.2.16-.34.38-.34.38-.14.22-.22.49-.22.78,0,0,0,.48.16.89q.33.35.66.7c.62.17,1.54.17,1.54.17h3.91v1.13L.13,763.71l297.39-253.54Z"/>
  </g>
  <g id="SPLINE-16" data-name="SPLINE">
    <path class="cls-1" d="M294.04,492.79l.33-1.22h0c1.08.25,1.89.71,2.46,1.37h0c.56.66.85,1.47.85,2.43,0,0,0,.99-.22,1.79q-.44.62-.87,1.24c-.63.47-1.45.79-1.45.79-.82.32-1.71.49-2.65.49,0,0-1.03,0-1.93-.18q-.77-.37-1.53-.73c-.58-.52-.98-1.19-.98-1.19-.4-.67-.6-1.42-.6-2.22,0,0,0-.92.25-1.69q.5-.62,1.01-1.25c.71-.44,1.62-.68,1.62-.68l.3,1.19s-.72.21-1.24.52q-.33.4-.66.81c-.16.51-.16,1.12-.16,1.12,0,.7.18,1.29.55,1.77,0,0,.36.47.85.81q.61.19,1.23.38c.63.1,1.29.1,1.29.1.84,0,1.57-.11,2.2-.34,0,0,.63-.23,1.1-.58q.31-.48.62-.96c.15-.52.15-1.08.15-1.08,0-.68-.21-1.25-.63-1.72,0,0-.42-.47-1.05-.79-.83-.17-294.75,270.76-294.75,270.76l293.92-270.93Z"/>
  </g>
  <g id="SPLINE-17" data-name="SPLINE">
    <path class="cls-1" d="M295.19,485.66l.17-1.17h0c.73.18,1.3.52,1.7,1.02,0,0,.4.5.61,1.13v1.74c-.32.77-.97,1.34-.97,1.34-.64.57-1.55.85-2.71.85,0,0-1.2,0-2.14-.29q-.66-.58-1.33-1.15c-.33-.75-.33-1.66-.33-1.66,0-.89.32-1.61.98-2.18,0,0,.65-.56,1.57-.84h1.25c.11,0,.25,0,.25,0v4.96s.79-.04,1.39-.25q.42-.37.83-.74c.21-.46.21-1.02.21-1.02,0-.41-.12-.77-.35-1.06,0,0-.23-.29-.61-.52-.52-.17-295.58,277.88-295.58,277.88l295.07-278.05Z"/>
  </g>
  <g id="SPLINE-18" data-name="SPLINE">
    <path class="cls-1" d="M293.24,489.36v-3.71s-.6.05-1.05.19q-.3.23-.77.59c-.23.47-.23,1.04-.23,1.04,0,.52.19.95.56,1.3,0,0,.37.35.87.55q.63.04-18.13-18.72l18.76,18.76Z"/>
  </g>
  <g id="SPLINE-19" data-name="SPLINE">
    <path class="cls-1" d="M297.51,483.07h-7.17v-1.01h1.02l-.78-.49c-.39-.71-.39-1.63-.39-1.63,0-.4.08-.77.23-1.11,0,0,.15-.34.36-.59q.25-.17.5-.33c.3-.12.64-.18.64-.18.23-.04.62-.06,1.18-.06h4.4v1.13h-4.36s-.49,0-.87.04q-.24.09-.49.18c-.2.16-.34.38-.34.38-.14.22-.22.49-.22.78,0,0,0,.48.16.89q.33.35.66.7c.62.17,1.54.17,1.54.17h3.91v1.13L.13,763.71l297.39-280.65Z"/>
  </g>
  <g id="SPLINE-20" data-name="SPLINE">
    <path class="cls-1" d="M296.43,473.48l1.07-.15h0c.07.32.11.6.11.85h0c0,.41-.07.73-.21.95,0,0-.14.22-.32.38q-.23.09-.46.18c-.48.05-1.21.05-1.21.05h-4.13v.83h-.94v-.83h-1.77l-.73-1.13h2.5v-1.13h.94v1.13h4.55c.22-.02.32-.06.32-.06.1-.04.18-.1.24-.19,0,0,.06-.09.09-.22v-.29q-.02-.16-296.35,289.87l296.3-290.23Z"/>
  </g>
  <g id="SPLINE-21" data-name="SPLINE">
    <path class="cls-1" d="M295.19,467.82l.17-1.17h0c.73.18,1.3.52,1.7,1.02,0,0,.4.5.61,1.13v1.74c-.32.77-.97,1.34-.97,1.34-.64.57-1.55.85-2.71.85,0,0-1.2,0-2.14-.29q-.66-.58-1.33-1.15c-.33-.75-.33-1.66-.33-1.66,0-.89.32-1.61.98-2.18,0,0,.65-.56,1.57-.84h1.25c.11,0,.25,0,.25,0v4.96s.79-.04,1.39-.25q.42-.37.83-.74c.21-.46.21-1.02.21-1.02,0-.41-.12-.77-.35-1.06,0,0-.23-.29-.61-.52-.52-.17-295.58,295.72-295.58,295.72l295.07-295.89Z"/>
  </g>
  <g id="SPLINE-22" data-name="SPLINE">
    <path class="cls-1" d="M293.24,471.52v-3.71s-.6.05-1.05.19q-.3.23-.77.59c-.23.47-.23,1.04-.23,1.04,0,.52.19.95.56,1.3,0,0,.37.35.87.55q.63.04-.3-.88l.92.92Z"/>
  </g>
  <g id="SPLINE-23" data-name="SPLINE">
    <path class="cls-1" d="M297.51,465.24h-7.17v-1.01h1.1l-.51-.26c-.34-.24-.5-.46-.5-.46-.16-.22-.24-.46-.24-.73,0,0,0-.38.13-.77l.26-.39,1.12.4c-.17.27-.25.55-.25.82,0,0,0,.25.08.47q.16.19.32.39c.22.14.5.22.5.22.43.13.9.19,1.42.19h3.75q0,1.13-297.39,299.6l297.39-298.47Z"/>
  </g>
  <g id="SPLINE-24" data-name="SPLINE">
    <path class="cls-1" d="M297.51,580.42h-9.89v-1.82l7-2.17.65-.2c.49-.15.81-.24.81-.24-.36-.1-.89-.27-1.59-.49l-6.88-2.21h0v-1.63h9.89v1.17h-8.28l8.28,2.68v1.1h0l-8.43,2.65h8.43v1.17L.13,763.71l297.39-183.29Z"/>
  </g>
  <g id="SPLINE-25" data-name="SPLINE">
    <path class="cls-1" d="M297.51,569.5h-9.89v-1.22h9.89v1.22Z"/>
  </g>
  <g id="SPLINE-26" data-name="SPLINE">
    <path class="cls-1" d="M297.51,563.81h-8.73v3.03h-1.16v-7.28h1.16v3.03h8.73v1.22L.13,763.71l297.39-199.91Z"/>
  </g>
  <g id="SPLINE-27" data-name="SPLINE">
    <path class="cls-1" d="M297.51,554.95h-9.89v-6.63h1.16v5.41h3.04v-5.07h1.16v5.07h3.37v-5.63h1.16v6.85L.13,763.71l297.39-208.77Z"/>
  </g>
  <g id="SPLINE-28" data-name="SPLINE">
    <path class="cls-1" d="M297.51,542.26h-.91,0c.71.42,1.06,1.04,1.06,1.86,0,0,0,.53-.16,1.02q-.32.44-.63.89c-.44.34-1,.59-1,.59-.56.24-1.21.37-1.94.37,0,0-.71,0-1.36-.11q-.58-.22-1.16-.44c-.45-.33-.76-.77-.76-.77-.31-.44-.47-.94-.47-1.48,0,0,0-.4.09-.76q.18-.31.36-.62c.24-.25.53-.45.53-.45h-3.56v-1.13h9.89v1.05Z"/>
  </g>
  <g id="SPLINE-29" data-name="SPLINE">
    <path class="cls-1" d="M293.94,545.82c.92,0,1.6-.18,2.05-.54,0,0,.45-.36.68-.78v-.98c-.22-.42-.65-.77-.65-.77-.43-.34-1.09-.52-1.98-.52,0,0-.98,0-1.7.18q-.46.35-.92.7c-.23.43-.23.95-.23.95,0,.5.22.92.66,1.26,0,0,.44.34,1.13.5.95,0-292.86,217.89-292.86,217.89l293.81-217.89Z"/>
  </g>
  <g id="SPLINE-30" data-name="SPLINE">
    <path class="cls-1" d="M298.11,539.63l.17-1.09h0c.36-.05.63-.17.8-.38h0c.22-.28.34-.66.34-1.15,0,0,0-.52-.11-.93q-.22-.28-.45-.57c-.32-.19-.72-.29-.72-.29-.25-.06-.76-.09-1.55-.08,0,0,.63.49.94,1.11v1.65c-.35.71-1.07,1.21-1.07,1.21-.71.5-1.56.75-2.55.75,0,0-.68,0-1.31-.12q-.58-.23-1.16-.46c-.44-.33-.76-.77-.76-.77-.32-.44-.47-.95-.47-1.54,0,0,0-.79.35-1.43l.69-.51h-.88v-1.04h7.31c.79.1,1.26.32,1.26.32.47.21.83.55,1.1,1,0,0,.27.46.41,1.02v1.46c-.19.64-.58,1.13-.58,1.13-.38.49-.96.72-1.73.71Z"/>
  </g>
  <g id="SPLINE-31" data-name="SPLINE">
    <path class="cls-1" d="M293.81,538.7c.94,0,1.62-.17,2.05-.52,0,0,.43-.35.65-.78v-1.04c-.21-.43-.64-.79-.64-.79-.43-.35-1.1-.53-2.02-.53,0,0-.88,0-1.54.18l-.89.72c-.22.44-.22.95-.22.95,0,.5.22.93.66,1.28,0,0,.44.35,1.09.53.86,0-292.82,225.01-292.82,225.01l293.68-225.01Z"/>
  </g>
  <g id="SPLINE-32" data-name="SPLINE">
    <path class="cls-1" d="M295.19,527.74l.17-1.17h0c.73.18,1.3.52,1.7,1.02,0,0,.4.5.61,1.13v1.74c-.32.77-.97,1.34-.97,1.34-.64.57-1.55.85-2.71.85,0,0-1.2,0-2.14-.29q-.66-.58-1.33-1.15c-.33-.75-.33-1.66-.33-1.66,0-.89.32-1.61.98-2.18,0,0,.65-.56,1.57-.84h1.25c.11,0,.25,0,.25,0v4.96s.79-.04,1.39-.25q.42-.37.83-.74c.21-.46.21-1.02.21-1.02,0-.41-.12-.77-.35-1.06,0,0-.23-.29-.61-.52-.52-.17-295.58,235.8-295.58,235.8l295.07-235.97Z"/>
  </g>
  <g id="SPLINE-33" data-name="SPLINE">
    <path class="cls-1" d="M293.24,531.44v-3.71s-.6.05-1.05.19q-.3.23-.77.59c-.23.47-.23,1.04-.23,1.04,0,.52.19.95.56,1.3,0,0,.37.35.87.55q.63.04-60.21-60.8l60.84,60.84Z"/>
  </g>
  <g id="SPLINE-34" data-name="SPLINE">
    <path class="cls-1" d="M297.51,525.16h-7.17v-1.01h1.1l-.51-.26c-.34-.24-.5-.46-.5-.46-.16-.22-.24-.46-.24-.73,0,0,0-.38.13-.77l.26-.39,1.12.4c-.17.27-.25.55-.25.82,0,0,0,.25.08.47q.16.19.32.39c.22.14.5.22.5.22.43.13.9.19,1.42.19h3.75q0,1.13-297.39,239.68l297.39-238.56Z"/>
  </g>
  <g id="SPLINE-35" data-name="SPLINE">
    <path class="cls-1" d="M296.43,518.42l1.07-.15h0c.07.32.11.6.11.85h0c0,.41-.07.72-.21.95,0,0-.14.22-.32.38q-.23.09-.46.18c-.48.04-1.21.04-1.21.04h-4.13v.83h-.94v-.83h-1.77l-.73-1.13h2.5v-1.13h.94v1.13h4.55c.22-.02.32-.06.32-.06.1-.04.18-.1.24-.19,0,0,.06-.09.09-.22v-.29q-.02-.16-296.35,244.92l296.3-245.29Z"/>
  </g>
  <g id="SPLINE-36" data-name="SPLINE">
    <path class="cls-1" d="M293.93,517.73c-1.32,0-2.31-.34-2.94-1.03,0,0-.53-.57-.79-1.27v-1.74c.32-.75.97-1.33.97-1.33.64-.58,1.53-.87,2.67-.87,0,0,.92,0,1.64.13l1.05.51c.41.37.7.87.7.87.29.49.44,1.03.44,1.61,0,0,0,.93-.32,1.69q-.64.58-1.28,1.15c-.93.29-2.13.29-295.93,246.27l293.8-245.98Z"/>
  </g>
  <g id="SPLINE-37" data-name="SPLINE">
    <path class="cls-1" d="M293.93,516.58c.92,0,1.6-.19,2.06-.56,0,0,.46-.37.68-.84v-1.13c-.23-.47-.69-.84-.69-.84-.46-.37-1.16-.56-2.09-.56,0,0-.88,0-1.55.19q-.45.37-.91.75c-.23.47-.23,1.02-.23,1.02,0,.57.23,1.03.68,1.41,0,0,.45.37,1.14.56.91,0-292.89,247.14-292.89,247.14l293.8-247.14Z"/>
  </g>
  <g id="SPLINE-38" data-name="SPLINE">
    <path class="cls-1" d="M297.51,510.17h-7.17v-1.01h1.02l-.78-.49c-.39-.71-.39-1.63-.39-1.63,0-.4.08-.77.23-1.11,0,0,.15-.34.36-.59q.25-.17.5-.33c.3-.12.64-.18.64-.18.23-.04.62-.06,1.18-.06h4.4v1.13h-4.36s-.49,0-.87.04q-.24.09-.49.18c-.2.16-.34.38-.34.38-.14.22-.22.49-.22.78,0,0,0,.48.16.89q.33.35.66.7c.62.17,1.54.17,1.54.17h3.91v1.13L.13,763.71l297.39-253.54Z"/>
  </g>
  <g id="SPLINE-39" data-name="SPLINE">
    <path class="cls-1" d="M294.04,492.79l.33-1.22h0c1.08.25,1.89.71,2.46,1.37h0c.56.66.85,1.47.85,2.43,0,0,0,.99-.22,1.79q-.44.62-.87,1.24c-.63.47-1.45.79-1.45.79-.82.32-1.71.49-2.65.49,0,0-1.03,0-1.93-.18q-.77-.37-1.53-.73c-.58-.52-.98-1.19-.98-1.19-.4-.67-.6-1.42-.6-2.22,0,0,0-.92.25-1.69q.5-.62,1.01-1.25c.71-.44,1.62-.68,1.62-.68l.3,1.19s-.72.21-1.24.52q-.33.4-.66.81c-.16.51-.16,1.12-.16,1.12,0,.7.18,1.29.55,1.77,0,0,.36.47.85.81q.61.19,1.23.38c.63.1,1.29.1,1.29.1.84,0,1.57-.11,2.2-.34,0,0,.63-.23,1.1-.58q.31-.48.62-.96c.15-.52.15-1.08.15-1.08,0-.68-.21-1.25-.63-1.72,0,0-.42-.47-1.05-.79-.83-.17-294.75,270.76-294.75,270.76l293.92-270.93Z"/>
  </g>
  <g id="SPLINE-40" data-name="SPLINE">
    <path class="cls-1" d="M295.19,485.66l.17-1.17h0c.73.18,1.3.52,1.7,1.02,0,0,.4.5.61,1.13v1.74c-.32.77-.97,1.34-.97,1.34-.64.57-1.55.85-2.71.85,0,0-1.2,0-2.14-.29q-.66-.58-1.33-1.15c-.33-.75-.33-1.66-.33-1.66,0-.89.32-1.61.98-2.18,0,0,.65-.56,1.57-.84h1.25c.11,0,.25,0,.25,0v4.96s.79-.04,1.39-.25q.42-.37.83-.74c.21-.46.21-1.02.21-1.02,0-.41-.12-.77-.35-1.06,0,0-.23-.29-.61-.52-.52-.17-295.58,277.88-295.58,277.88l295.07-278.05Z"/>
  </g>
  <g id="SPLINE-41" data-name="SPLINE">
    <path class="cls-1" d="M293.24,489.36v-3.71s-.6.05-1.05.19q-.3.23-.77.59c-.23.47-.23,1.04-.23,1.04,0,.52.19.95.56,1.3,0,0,.37.35.87.55q.63.04-18.13-18.72l18.76,18.76Z"/>
  </g>
  <g id="SPLINE-42" data-name="SPLINE">
    <path class="cls-1" d="M297.51,483.07h-7.17v-1.01h1.02l-.78-.49c-.39-.71-.39-1.63-.39-1.63,0-.4.08-.77.23-1.11,0,0,.15-.34.36-.59q.25-.17.5-.33c.3-.12.64-.18.64-.18.23-.04.62-.06,1.18-.06h4.4v1.13h-4.36s-.49,0-.87.04q-.24.09-.49.18c-.2.16-.34.38-.34.38-.14.22-.22.49-.22.78,0,0,0,.48.16.89q.33.35.66.7c.62.17,1.54.17,1.54.17h3.91v1.13L.13,763.71l297.39-280.65Z"/>
  </g>
  <g id="SPLINE-43" data-name="SPLINE">
    <path class="cls-1" d="M296.43,473.48l1.07-.15h0c.07.32.11.6.11.85h0c0,.41-.07.73-.21.95,0,0-.14.22-.32.38q-.23.09-.46.18c-.48.05-1.21.05-1.21.05h-4.13v.83h-.94v-.83h-1.77l-.73-1.13h2.5v-1.13h.94v1.13h4.55c.22-.02.32-.06.32-.06.1-.04.18-.1.24-.19,0,0,.06-.09.09-.22v-.29q-.02-.16-296.35,289.87l296.3-290.23Z"/>
  </g>
  <g id="SPLINE-44" data-name="SPLINE">
    <path class="cls-1" d="M295.19,467.82l.17-1.17h0c.73.18,1.3.52,1.7,1.02,0,0,.4.5.61,1.13v1.74c-.32.77-.97,1.34-.97,1.34-.64.57-1.55.85-2.71.85,0,0-1.2,0-2.14-.29q-.66-.58-1.33-1.15c-.33-.75-.33-1.66-.33-1.66,0-.89.32-1.61.98-2.18,0,0,.65-.56,1.57-.84h1.25c.11,0,.25,0,.25,0v4.96s.79-.04,1.39-.25q.42-.37.83-.74c.21-.46.21-1.02.21-1.02,0-.41-.12-.77-.35-1.06,0,0-.23-.29-.61-.52-.52-.17-295.58,295.72-295.58,295.72l295.07-295.89Z"/>
  </g>
  <g id="SPLINE-45" data-name="SPLINE">
    <path class="cls-1" d="M293.24,471.52v-3.71s-.6.05-1.05.19q-.3.23-.77.59c-.23.47-.23,1.04-.23,1.04,0,.52.19.95.56,1.3,0,0,.37.35.87.55q.63.04-.3-.88l.92.92Z"/>
  </g>
  <g id="SPLINE-46" data-name="SPLINE">
    <path class="cls-1" d="M297.51,465.24h-7.17v-1.01h1.1l-.51-.26c-.34-.24-.5-.46-.5-.46-.16-.22-.24-.46-.24-.73,0,0,0-.38.13-.77l.26-.39,1.12.4c-.17.27-.25.55-.25.82,0,0,0,.25.08.47q.16.19.32.39c.22.14.5.22.5.22.43.13.9.19,1.42.19h3.75q0,1.13-297.39,299.6l297.39-298.47Z"/>
  </g>
  <g id="SPLINE-47" data-name="SPLINE">
    <line class="cls-2" x1="314.21" y1="98.21" x2="360.13" y2="98.21"/>
  </g>
  <g id="SPLINE-48" data-name="SPLINE">
    <line class="cls-2" x1="314.21" y1="98.21" x2="314.21" y2="106.71"/>
  </g>
  <g id="SPLINE-49" data-name="SPLINE">
    <line class="cls-2" x1="314.21" y1="106.71" x2="360.13" y2="106.71"/>
  </g>
  <g id="SPLINE-50" data-name="SPLINE">
    <line class="cls-2" x1="360.13" y1="98.21" x2="360.13" y2="106.71"/>
  </g>
  <g id="SPLINE-51" data-name="SPLINE">
    <line class="cls-2" x1="403.78" y1="98.21" x2="449.7" y2="98.21"/>
  </g>
  <g id="SPLINE-52" data-name="SPLINE">
    <line class="cls-2" x1="403.78" y1="98.21" x2="403.78" y2="106.71"/>
  </g>
  <g id="SPLINE-53" data-name="SPLINE">
    <line class="cls-2" x1="403.78" y1="106.71" x2="449.7" y2="106.71"/>
  </g>
  <g id="SPLINE-54" data-name="SPLINE">
    <line class="cls-2" x1="449.7" y1="72.98" x2="270.55" y2="72.98"/>
  </g>
  <g id="SPLINE-55" data-name="SPLINE">
    <line class="cls-2" x1="449.7" y1="98.21" x2="449.7" y2="106.71"/>
  </g>
  <g id="SPLINE-56" data-name="SPLINE">
    <line class="cls-2" x1="315.34" y1="261.48" x2="360.13" y2="261.48"/>
  </g>
  <g id="SPLINE-57" data-name="SPLINE">
    <line class="cls-2" x1="315.34" y1="261.48" x2="315.34" y2="253.26"/>
  </g>
  <g id="SPLINE-58" data-name="SPLINE">
    <line class="cls-2" x1="315.34" y1="253.26" x2="360.13" y2="253.26"/>
  </g>
  <g id="SPLINE-59" data-name="SPLINE">
    <line class="cls-2" x1="315.34" y1="408.03" x2="360.13" y2="408.03"/>
  </g>
  <g id="SPLINE-60" data-name="SPLINE">
    <line class="cls-2" x1="315.34" y1="408.03" x2="315.34" y2="399.53"/>
  </g>
  <g id="SPLINE-61" data-name="SPLINE">
    <line class="cls-2" x1="315.34" y1="399.53" x2="360.13" y2="399.53"/>
  </g>
  <g id="SPLINE-62" data-name="SPLINE">
    <line class="cls-2" x1="315.34" y1="451.97" x2="360.13" y2="451.97"/>
  </g>
  <g id="SPLINE-63" data-name="SPLINE">
    <line class="cls-2" x1="315.34" y1="451.97" x2="315.34" y2="443.47"/>
  </g>
  <g id="SPLINE-64" data-name="SPLINE">
    <line class="cls-2" x1="315.34" y1="443.47" x2="360.13" y2="443.47"/>
  </g>
  <g id="SPLINE-65" data-name="SPLINE">
    <line class="cls-2" x1="315.34" y1="598.24" x2="360.13" y2="598.24"/>
  </g>
  <g id="SPLINE-66" data-name="SPLINE">
    <line class="cls-2" x1="315.34" y1="598.24" x2="315.34" y2="590.02"/>
  </g>
  <g id="SPLINE-67" data-name="SPLINE">
    <line class="cls-2" x1="315.34" y1="590.02" x2="360.13" y2="590.02"/>
  </g>
  <g id="SPLINE-68" data-name="SPLINE">
    <line class="cls-2" x1="360.13" y1="598.24" x2="360.13" y2="590.02"/>
  </g>
  <g id="SPLINE-69" data-name="SPLINE">
    <line class="cls-2" x1="315.34" y1="642.17" x2="360.13" y2="642.17"/>
  </g>
  <g id="SPLINE-70" data-name="SPLINE">
    <line class="cls-2" x1="315.34" y1="642.17" x2="315.34" y2="633.95"/>
  </g>
  <g id="SPLINE-71" data-name="SPLINE">
    <line class="cls-2" x1="315.34" y1="633.95" x2="360.13" y2="633.95"/>
  </g>
  <g id="SPLINE-72" data-name="SPLINE">
    <line class="cls-2" x1="360.13" y1="642.17" x2="360.13" y2="633.95"/>
  </g>
  <g id="SPLINE-73" data-name="SPLINE">
    <line class="cls-2" x1="315.34" y1="788.44" x2="360.13" y2="788.44"/>
  </g>
  <g id="SPLINE-74" data-name="SPLINE">
    <line class="cls-2" x1="315.34" y1="788.44" x2="315.34" y2="780.22"/>
  </g>
  <g id="SPLINE-75" data-name="SPLINE">
    <line class="cls-2" x1="315.34" y1="780.22" x2="360.13" y2="780.22"/>
  </g>
  <g id="SPLINE-76" data-name="SPLINE">
    <line class="cls-2" x1="360.13" y1="788.44" x2="360.13" y2="780.22"/>
  </g>
  <g id="SPLINE-77" data-name="SPLINE">
    <line class="cls-2" x1="449.7" y1="72.98" x2="449.7" y2="235.4"/>
  </g>
  <g id="SPLINE-78" data-name="SPLINE">
    <line class="cls-2" x1="400.38" y1="130.24" x2="400.38" y2="139.59"/>
  </g>
  <g id="SPLINE-79" data-name="SPLINE">
    <line class="cls-2" x1="400.38" y1="139.59" x2="400.38" y2="160.57"/>
  </g>
  <g id="SPLINE-80" data-name="SPLINE">
    <line class="cls-2" x1="400.38" y1="160.57" x2="400.38" y2="167.66"/>
  </g>
  <g id="SPLINE-81" data-name="SPLINE">
    <line class="cls-2" x1="400.38" y1="167.66" x2="400.38" y2="167.94"/>
  </g>
  <g id="SPLINE-82" data-name="SPLINE">
    <line class="cls-2" x1="400.38" y1="167.94" x2="399.53" y2="168.51"/>
  </g>
  <g id="SPLINE-83" data-name="SPLINE">
    <line class="cls-2" x1="399.53" y1="168.51" x2="398.68" y2="168.79"/>
  </g>
  <g id="SPLINE-84" data-name="SPLINE">
    <line class="cls-2" x1="398.68" y1="168.79" x2="398.4" y2="168.79"/>
  </g>
  <g id="SPLINE-85" data-name="SPLINE">
    <line class="cls-2" x1="398.4" y1="168.79" x2="396.98" y2="168.79"/>
  </g>
  <g id="SPLINE-86" data-name="SPLINE">
    <line class="cls-2" x1="396.98" y1="168.79" x2="393.58" y2="168.79"/>
  </g>
  <g id="SPLINE-87" data-name="SPLINE">
    <line class="cls-2" x1="393.58" y1="168.79" x2="392.44" y2="168.79"/>
  </g>
  <g id="SPLINE-88" data-name="SPLINE">
    <line class="cls-2" x1="392.44" y1="168.79" x2="392.16" y2="168.79"/>
  </g>
  <g id="SPLINE-89" data-name="SPLINE">
    <line class="cls-2" x1="392.16" y1="168.79" x2="391.31" y2="168.51"/>
  </g>
  <g id="SPLINE-90" data-name="SPLINE">
    <line class="cls-2" x1="391.31" y1="168.51" x2="390.46" y2="167.94"/>
  </g>
  <g id="SPLINE-91" data-name="SPLINE">
    <line class="cls-2" x1="390.46" y1="167.94" x2="390.46" y2="167.66"/>
  </g>
  <g id="SPLINE-92" data-name="SPLINE">
    <line class="cls-2" x1="390.46" y1="167.66" x2="390.46" y2="158.3"/>
  </g>
  <g id="SPLINE-93" data-name="SPLINE">
    <line class="cls-2" x1="390.46" y1="158.3" x2="390.46" y2="137.32"/>
  </g>
  <g id="SPLINE-94" data-name="SPLINE">
    <line class="cls-2" x1="390.46" y1="137.32" x2="390.46" y2="130.24"/>
  </g>
  <g id="SPLINE-95" data-name="SPLINE">
    <line class="cls-2" x1="390.46" y1="130.24" x2="390.46" y2="129.95"/>
  </g>
  <g id="SPLINE-96" data-name="SPLINE">
    <line class="cls-2" x1="390.46" y1="129.95" x2="391.31" y2="129.1"/>
  </g>
  <g id="SPLINE-97" data-name="SPLINE">
    <line class="cls-2" x1="391.31" y1="129.1" x2="392.16" y2="128.82"/>
  </g>
  <g id="SPLINE-98" data-name="SPLINE">
    <line class="cls-2" x1="392.16" y1="128.82" x2="392.44" y2="128.82"/>
  </g>
  <g id="SPLINE-99" data-name="SPLINE">
    <line class="cls-2" x1="392.44" y1="128.82" x2="393.86" y2="128.82"/>
  </g>
  <g id="SPLINE-100" data-name="SPLINE">
    <line class="cls-2" x1="393.86" y1="128.82" x2="397.26" y2="128.82"/>
  </g>
  <g id="SPLINE-101" data-name="SPLINE">
    <line class="cls-2" x1="397.26" y1="128.82" x2="398.4" y2="128.82"/>
  </g>
  <g id="SPLINE-102" data-name="SPLINE">
    <line class="cls-2" x1="398.4" y1="128.82" x2="398.68" y2="128.82"/>
  </g>
  <g id="SPLINE-103" data-name="SPLINE">
    <line class="cls-2" x1="398.68" y1="128.82" x2="399.53" y2="129.1"/>
  </g>
  <g id="SPLINE-104" data-name="SPLINE">
    <line class="cls-2" x1="399.53" y1="129.1" x2="400.38" y2="129.95"/>
  </g>
  <g id="SPLINE-105" data-name="SPLINE">
    <line class="cls-2" x1="400.38" y1="129.95" x2="400.38" y2="130.24"/>
  </g>
  <g id="SPLINE-106" data-name="SPLINE">
    <line class="cls-2" x1="449.42" y1="217.54" x2="449.7" y2="218.11"/>
  </g>
  <g id="SPLINE-107" data-name="SPLINE">
    <line class="cls-2" x1="449.7" y1="218.11" x2="449.42" y2="217.54"/>
  </g>
  <g id="SPLINE-108" data-name="SPLINE">
    <line class="cls-2" x1="449.42" y1="217.54" x2="448.57" y2="216.98"/>
  </g>
  <g id="SPLINE-109" data-name="SPLINE">
    <line class="cls-2" x1="448.57" y1="216.98" x2="448.29" y2="216.98"/>
  </g>
  <g id="SPLINE-110" data-name="SPLINE">
    <line class="cls-2" x1="448.29" y1="216.98" x2="404.91" y2="216.98"/>
  </g>
  <g id="SPLINE-111" data-name="SPLINE">
    <line class="cls-2" x1="404.91" y1="216.98" x2="404.63" y2="216.98"/>
  </g>
  <g id="SPLINE-112" data-name="SPLINE">
    <line class="cls-2" x1="404.63" y1="216.98" x2="404.06" y2="216.69"/>
  </g>
  <g id="SPLINE-113" data-name="SPLINE">
    <line class="cls-2" x1="404.06" y1="216.69" x2="403.78" y2="215.84"/>
  </g>
  <g id="SPLINE-114" data-name="SPLINE">
    <line class="cls-2" x1="403.78" y1="215.84" x2="403.78" y2="215.56"/>
  </g>
  <g id="SPLINE-115" data-name="SPLINE">
    <line class="cls-2" x1="403.78" y1="215.56" x2="403.78" y2="192.6"/>
  </g>
  <g id="SPLINE-116" data-name="SPLINE">
    <line class="cls-2" x1="403.78" y1="192.6" x2="403.78" y2="192.32"/>
  </g>
  <g id="SPLINE-117" data-name="SPLINE">
    <line class="cls-2" x1="403.78" y1="192.32" x2="404.06" y2="191.47"/>
  </g>
  <g id="SPLINE-118" data-name="SPLINE">
    <line class="cls-2" x1="404.06" y1="191.47" x2="404.63" y2="191.18"/>
  </g>
  <g id="SPLINE-119" data-name="SPLINE">
    <line class="cls-2" x1="404.63" y1="191.18" x2="404.91" y2="191.18"/>
  </g>
  <g id="SPLINE-120" data-name="SPLINE">
    <line class="cls-2" x1="404.91" y1="191.18" x2="448.29" y2="191.18"/>
  </g>
  <g id="SPLINE-121" data-name="SPLINE">
    <line class="cls-2" x1="448.29" y1="191.18" x2="448.57" y2="191.18"/>
  </g>
  <g id="SPLINE-122" data-name="SPLINE">
    <line class="cls-2" x1="448.57" y1="191.18" x2="449.42" y2="190.62"/>
  </g>
  <g id="SPLINE-123" data-name="SPLINE">
    <line class="cls-2" x1="449.42" y1="190.62" x2="449.7" y2="190.05"/>
  </g>
  <g id="SPLINE-124" data-name="SPLINE">
    <line class="cls-2" x1="449.7" y1="190.05" x2="449.42" y2="190.62"/>
  </g>
  <g id="SPLINE-125" data-name="SPLINE">
    <line class="cls-2" x1="360.13" y1="72.98" x2="360.13" y2="806.3"/>
  </g>
  <g id="SPLINE-126" data-name="SPLINE">
    <line class="cls-3" x1="360.13" y1="106.71" x2="360.13" y2="107.84"/>
  </g>
  <g id="SPLINE-127" data-name="SPLINE">
    <line class="cls-3" x1="360.13" y1="98.21" x2="360.13" y2="96.79"/>
  </g>
  <g id="SPLINE-128" data-name="SPLINE">
    <line class="cls-2" x1="359.84" y1="217.54" x2="360.13" y2="218.11"/>
  </g>
  <g id="SPLINE-129" data-name="SPLINE">
    <line class="cls-2" x1="360.13" y1="218.11" x2="359.84" y2="217.54"/>
  </g>
  <g id="SPLINE-130" data-name="SPLINE">
    <line class="cls-2" x1="359.84" y1="217.54" x2="358.99" y2="216.98"/>
  </g>
  <g id="SPLINE-131" data-name="SPLINE">
    <line class="cls-2" x1="358.99" y1="216.98" x2="358.71" y2="216.98"/>
  </g>
  <g id="SPLINE-132" data-name="SPLINE">
    <line class="cls-2" x1="358.71" y1="216.98" x2="315.34" y2="216.98"/>
  </g>
  <g id="SPLINE-133" data-name="SPLINE">
    <line class="cls-2" x1="315.34" y1="216.98" x2="315.06" y2="216.98"/>
  </g>
  <g id="SPLINE-134" data-name="SPLINE">
    <line class="cls-2" x1="315.06" y1="216.98" x2="314.49" y2="216.69"/>
  </g>
  <g id="SPLINE-135" data-name="SPLINE">
    <line class="cls-2" x1="314.49" y1="216.69" x2="314.21" y2="215.84"/>
  </g>
  <g id="SPLINE-136" data-name="SPLINE">
    <line class="cls-2" x1="314.21" y1="215.84" x2="314.21" y2="215.56"/>
  </g>
  <g id="SPLINE-137" data-name="SPLINE">
    <line class="cls-2" x1="314.21" y1="215.56" x2="314.21" y2="192.6"/>
  </g>
  <g id="SPLINE-138" data-name="SPLINE">
    <line class="cls-2" x1="314.21" y1="192.6" x2="314.21" y2="192.32"/>
  </g>
  <g id="SPLINE-139" data-name="SPLINE">
    <line class="cls-2" x1="314.21" y1="192.32" x2="314.49" y2="191.47"/>
  </g>
  <g id="SPLINE-140" data-name="SPLINE">
    <line class="cls-2" x1="314.49" y1="191.47" x2="315.06" y2="191.18"/>
  </g>
  <g id="SPLINE-141" data-name="SPLINE">
    <line class="cls-2" x1="315.06" y1="191.18" x2="315.34" y2="191.18"/>
  </g>
  <g id="SPLINE-142" data-name="SPLINE">
    <line class="cls-2" x1="315.34" y1="191.18" x2="358.71" y2="191.18"/>
  </g>
  <g id="SPLINE-143" data-name="SPLINE">
    <line class="cls-2" x1="358.71" y1="191.18" x2="358.99" y2="191.18"/>
  </g>
  <g id="SPLINE-144" data-name="SPLINE">
    <line class="cls-2" x1="358.99" y1="191.18" x2="359.84" y2="190.62"/>
  </g>
  <g id="SPLINE-145" data-name="SPLINE">
    <line class="cls-2" x1="359.84" y1="190.62" x2="360.13" y2="190.05"/>
  </g>
  <g id="SPLINE-146" data-name="SPLINE">
    <line class="cls-2" x1="360.13" y1="190.05" x2="359.84" y2="190.62"/>
  </g>
  <g id="SPLINE-147" data-name="SPLINE">
    <line class="cls-2" x1="360.13" y1="547.5" x2="320.73" y2="547.5"/>
  </g>
  <g id="SPLINE-148" data-name="SPLINE">
    <line class="cls-2" x1="320.73" y1="547.5" x2="320.73" y2="494.21"/>
  </g>
  <g id="SPLINE-149" data-name="SPLINE">
    <line class="cls-2" x1="320.73" y1="494.21" x2="360.13" y2="494.21"/>
  </g>
  <g id="SPLINE-150" data-name="SPLINE">
    <line class="cls-2" x1="317.04" y1="281.32" x2="316.76" y2="281.32"/>
  </g>
  <g id="SPLINE-151" data-name="SPLINE">
    <line class="cls-2" x1="316.76" y1="281.32" x2="315.91" y2="280.47"/>
  </g>
  <g id="SPLINE-152" data-name="SPLINE">
    <line class="cls-2" x1="315.91" y1="280.47" x2="314.77" y2="280.47"/>
  </g>
  <g id="SPLINE-153" data-name="SPLINE">
    <line class="cls-2" x1="314.77" y1="280.47" x2="314.49" y2="280.76"/>
  </g>
  <g id="SPLINE-154" data-name="SPLINE">
    <line class="cls-2" x1="314.49" y1="280.76" x2="313.64" y2="281.61"/>
  </g>
  <g id="SPLINE-155" data-name="SPLINE">
    <line class="cls-2" x1="313.64" y1="281.61" x2="313.64" y2="282.74"/>
  </g>
  <g id="SPLINE-156" data-name="SPLINE">
    <line class="cls-2" x1="313.64" y1="282.74" x2="313.64" y2="283.03"/>
  </g>
  <g id="SPLINE-157" data-name="SPLINE">
    <line class="cls-2" x1="313.64" y1="283.03" x2="313.92" y2="283.03"/>
  </g>
  <g id="SPLINE-158" data-name="SPLINE">
    <line class="cls-2" x1="313.92" y1="283.03" x2="314.77" y2="283.88"/>
  </g>
  <g id="SPLINE-159" data-name="SPLINE">
    <line class="cls-2" x1="314.77" y1="283.88" x2="315.91" y2="283.88"/>
  </g>
  <g id="SPLINE-160" data-name="SPLINE">
    <line class="cls-2" x1="315.91" y1="283.88" x2="316.19" y2="283.88"/>
  </g>
  <g id="SPLINE-161" data-name="SPLINE">
    <line class="cls-2" x1="316.19" y1="283.88" x2="316.47" y2="283.59"/>
  </g>
  <g id="SPLINE-162" data-name="SPLINE">
    <line class="cls-2" x1="316.47" y1="283.59" x2="317.04" y2="282.74"/>
  </g>
  <g id="SPLINE-163" data-name="SPLINE">
    <line class="cls-2" x1="317.04" y1="282.74" x2="317.04" y2="281.61"/>
  </g>
  <g id="SPLINE-164" data-name="SPLINE">
    <line class="cls-2" x1="317.04" y1="281.61" x2="317.04" y2="281.32"/>
  </g>
  <g id="SPLINE-165" data-name="SPLINE">
    <line class="cls-2" x1="317.04" y1="288.41" x2="316.76" y2="288.13"/>
  </g>
  <g id="SPLINE-166" data-name="SPLINE">
    <line class="cls-2" x1="316.76" y1="288.13" x2="315.91" y2="287.56"/>
  </g>
  <g id="SPLINE-167" data-name="SPLINE">
    <line class="cls-2" x1="315.91" y1="287.56" x2="314.77" y2="287.56"/>
  </g>
  <g id="SPLINE-168" data-name="SPLINE">
    <line class="cls-2" x1="314.77" y1="287.56" x2="314.49" y2="287.56"/>
  </g>
  <g id="SPLINE-169" data-name="SPLINE">
    <line class="cls-2" x1="314.49" y1="287.56" x2="313.64" y2="288.41"/>
  </g>
  <g id="SPLINE-170" data-name="SPLINE">
    <line class="cls-2" x1="313.64" y1="288.41" x2="313.64" y2="289.54"/>
  </g>
  <g id="SPLINE-171" data-name="SPLINE">
    <line class="cls-2" x1="313.64" y1="289.54" x2="313.64" y2="289.83"/>
  </g>
  <g id="SPLINE-172" data-name="SPLINE">
    <line class="cls-2" x1="313.64" y1="289.83" x2="313.92" y2="290.11"/>
  </g>
  <g id="SPLINE-173" data-name="SPLINE">
    <line class="cls-2" x1="313.92" y1="290.11" x2="314.77" y2="290.68"/>
  </g>
  <g id="SPLINE-174" data-name="SPLINE">
    <line class="cls-2" x1="314.77" y1="290.68" x2="315.91" y2="290.68"/>
  </g>
  <g id="SPLINE-175" data-name="SPLINE">
    <line class="cls-2" x1="315.91" y1="290.68" x2="316.19" y2="290.68"/>
  </g>
  <g id="SPLINE-176" data-name="SPLINE">
    <line class="cls-2" x1="316.19" y1="290.68" x2="316.47" y2="290.68"/>
  </g>
  <g id="SPLINE-177" data-name="SPLINE">
    <line class="cls-2" x1="316.47" y1="290.68" x2="317.04" y2="289.54"/>
  </g>
  <g id="SPLINE-178" data-name="SPLINE">
    <line class="cls-2" x1="317.04" y1="289.54" x2="317.04" y2="288.69"/>
  </g>
  <g id="SPLINE-179" data-name="SPLINE">
    <line class="cls-2" x1="317.04" y1="288.69" x2="317.04" y2="288.41"/>
  </g>
  <g id="SPLINE-180" data-name="SPLINE">
    <line class="cls-2" x1="317.04" y1="326.4" x2="316.76" y2="326.11"/>
  </g>
  <g id="SPLINE-181" data-name="SPLINE">
    <line class="cls-2" x1="316.76" y1="326.11" x2="315.91" y2="325.54"/>
  </g>
  <g id="SPLINE-182" data-name="SPLINE">
    <line class="cls-2" x1="315.91" y1="325.54" x2="314.77" y2="325.54"/>
  </g>
  <g id="SPLINE-183" data-name="SPLINE">
    <line class="cls-2" x1="314.77" y1="325.54" x2="314.49" y2="325.54"/>
  </g>
  <g id="SPLINE-184" data-name="SPLINE">
    <line class="cls-2" x1="314.49" y1="325.54" x2="314.49" y2="325.83"/>
  </g>
  <g id="SPLINE-185" data-name="SPLINE">
    <line class="cls-2" x1="314.49" y1="325.83" x2="313.64" y2="326.68"/>
  </g>
  <g id="SPLINE-186" data-name="SPLINE">
    <line class="cls-2" x1="313.64" y1="326.68" x2="313.64" y2="327.81"/>
  </g>
  <g id="SPLINE-187" data-name="SPLINE">
    <line class="cls-2" x1="313.64" y1="327.81" x2="313.92" y2="328.1"/>
  </g>
  <g id="SPLINE-188" data-name="SPLINE">
    <line class="cls-2" x1="313.92" y1="328.1" x2="314.77" y2="328.66"/>
  </g>
  <g id="SPLINE-189" data-name="SPLINE">
    <line class="cls-2" x1="314.77" y1="328.66" x2="315.91" y2="328.95"/>
  </g>
  <g id="SPLINE-190" data-name="SPLINE">
    <line class="cls-2" x1="315.91" y1="328.95" x2="316.19" y2="328.66"/>
  </g>
  <g id="SPLINE-191" data-name="SPLINE">
    <line class="cls-2" x1="316.19" y1="328.66" x2="316.47" y2="328.66"/>
  </g>
  <g id="SPLINE-192" data-name="SPLINE">
    <line class="cls-2" x1="316.47" y1="328.66" x2="317.04" y2="327.81"/>
  </g>
  <g id="SPLINE-193" data-name="SPLINE">
    <line class="cls-2" x1="317.04" y1="327.81" x2="317.04" y2="326.68"/>
  </g>
  <g id="SPLINE-194" data-name="SPLINE">
    <line class="cls-2" x1="317.04" y1="326.68" x2="317.04" y2="326.4"/>
  </g>
  <g id="SPLINE-195" data-name="SPLINE">
    <line class="cls-2" x1="317.04" y1="333.2" x2="316.76" y2="333.2"/>
  </g>
  <g id="SPLINE-196" data-name="SPLINE">
    <line class="cls-2" x1="316.76" y1="333.2" x2="315.91" y2="332.35"/>
  </g>
  <g id="SPLINE-197" data-name="SPLINE">
    <line class="cls-2" x1="315.91" y1="332.35" x2="314.77" y2="332.35"/>
  </g>
  <g id="SPLINE-198" data-name="SPLINE">
    <line class="cls-2" x1="314.77" y1="332.35" x2="314.49" y2="332.63"/>
  </g>
  <g id="SPLINE-199" data-name="SPLINE">
    <line class="cls-2" x1="314.49" y1="332.63" x2="313.64" y2="333.48"/>
  </g>
  <g id="SPLINE-200" data-name="SPLINE">
    <line class="cls-2" x1="313.64" y1="333.48" x2="313.64" y2="334.62"/>
  </g>
  <g id="SPLINE-201" data-name="SPLINE">
    <line class="cls-2" x1="313.64" y1="334.62" x2="313.64" y2="334.9"/>
  </g>
  <g id="SPLINE-202" data-name="SPLINE">
    <line class="cls-2" x1="313.64" y1="334.9" x2="313.92" y2="334.9"/>
  </g>
  <g id="SPLINE-203" data-name="SPLINE">
    <line class="cls-2" x1="313.92" y1="334.9" x2="314.77" y2="335.75"/>
  </g>
  <g id="SPLINE-204" data-name="SPLINE">
    <line class="cls-2" x1="314.77" y1="335.75" x2="315.91" y2="335.75"/>
  </g>
  <g id="SPLINE-205" data-name="SPLINE">
    <line class="cls-2" x1="315.91" y1="335.75" x2="316.19" y2="335.75"/>
  </g>
  <g id="SPLINE-206" data-name="SPLINE">
    <line class="cls-2" x1="316.19" y1="335.75" x2="316.47" y2="335.47"/>
  </g>
  <g id="SPLINE-207" data-name="SPLINE">
    <line class="cls-2" x1="316.47" y1="335.47" x2="317.04" y2="334.62"/>
  </g>
  <g id="SPLINE-208" data-name="SPLINE">
    <line class="cls-2" x1="317.04" y1="334.62" x2="317.04" y2="333.48"/>
  </g>
  <g id="SPLINE-209" data-name="SPLINE">
    <line class="cls-2" x1="317.04" y1="333.48" x2="317.04" y2="333.2"/>
  </g>
  <g id="SPLINE-210" data-name="SPLINE">
    <line class="cls-2" x1="317.04" y1="371.47" x2="316.76" y2="371.18"/>
  </g>
  <g id="SPLINE-211" data-name="SPLINE">
    <line class="cls-2" x1="316.76" y1="371.18" x2="315.91" y2="370.62"/>
  </g>
  <g id="SPLINE-212" data-name="SPLINE">
    <line class="cls-2" x1="315.91" y1="370.62" x2="314.77" y2="370.33"/>
  </g>
  <g id="SPLINE-213" data-name="SPLINE">
    <line class="cls-2" x1="314.77" y1="370.33" x2="314.49" y2="370.62"/>
  </g>
  <g id="SPLINE-214" data-name="SPLINE">
    <line class="cls-2" x1="314.49" y1="370.62" x2="313.64" y2="371.47"/>
  </g>
  <g id="SPLINE-215" data-name="SPLINE">
    <line class="cls-2" x1="313.64" y1="371.47" x2="313.64" y2="372.6"/>
  </g>
  <g id="SPLINE-216" data-name="SPLINE">
    <line class="cls-2" x1="313.64" y1="372.6" x2="313.64" y2="372.88"/>
  </g>
  <g id="SPLINE-217" data-name="SPLINE">
    <line class="cls-2" x1="313.64" y1="372.88" x2="313.92" y2="373.17"/>
  </g>
  <g id="SPLINE-218" data-name="SPLINE">
    <line class="cls-2" x1="313.92" y1="373.17" x2="314.77" y2="373.73"/>
  </g>
  <g id="SPLINE-219" data-name="SPLINE">
    <line class="cls-2" x1="314.77" y1="373.73" x2="315.91" y2="373.73"/>
  </g>
  <g id="SPLINE-220" data-name="SPLINE">
    <line class="cls-2" x1="315.91" y1="373.73" x2="316.19" y2="373.73"/>
  </g>
  <g id="SPLINE-221" data-name="SPLINE">
    <line class="cls-2" x1="316.19" y1="373.73" x2="316.47" y2="373.45"/>
  </g>
  <g id="SPLINE-222" data-name="SPLINE">
    <line class="cls-2" x1="316.47" y1="373.45" x2="317.04" y2="372.6"/>
  </g>
  <g id="SPLINE-223" data-name="SPLINE">
    <line class="cls-2" x1="317.04" y1="372.6" x2="317.04" y2="371.47"/>
  </g>
  <g id="SPLINE-224" data-name="SPLINE">
    <line class="cls-2" x1="317.04" y1="378.27" x2="316.76" y2="377.99"/>
  </g>
  <g id="SPLINE-225" data-name="SPLINE">
    <line class="cls-2" x1="316.76" y1="377.99" x2="315.91" y2="377.42"/>
  </g>
  <g id="SPLINE-226" data-name="SPLINE">
    <line class="cls-2" x1="315.91" y1="377.42" x2="314.77" y2="377.42"/>
  </g>
  <g id="SPLINE-227" data-name="SPLINE">
    <line class="cls-2" x1="314.77" y1="377.42" x2="314.49" y2="377.42"/>
  </g>
  <g id="SPLINE-228" data-name="SPLINE">
    <line class="cls-2" x1="314.49" y1="377.42" x2="314.49" y2="377.7"/>
  </g>
  <g id="SPLINE-229" data-name="SPLINE">
    <line class="cls-2" x1="314.49" y1="377.7" x2="313.64" y2="378.55"/>
  </g>
  <g id="SPLINE-230" data-name="SPLINE">
    <line class="cls-2" x1="313.64" y1="378.55" x2="313.64" y2="379.69"/>
  </g>
  <g id="SPLINE-231" data-name="SPLINE">
    <line class="cls-2" x1="313.64" y1="379.69" x2="313.92" y2="379.97"/>
  </g>
  <g id="SPLINE-232" data-name="SPLINE">
    <line class="cls-2" x1="313.92" y1="379.97" x2="314.77" y2="380.82"/>
  </g>
  <g id="SPLINE-233" data-name="SPLINE">
    <line class="cls-2" x1="314.77" y1="380.82" x2="315.91" y2="380.82"/>
  </g>
  <g id="SPLINE-234" data-name="SPLINE">
    <line class="cls-2" x1="315.91" y1="380.82" x2="316.19" y2="380.54"/>
  </g>
  <g id="SPLINE-235" data-name="SPLINE">
    <line class="cls-2" x1="316.19" y1="380.54" x2="316.47" y2="380.54"/>
  </g>
  <g id="SPLINE-236" data-name="SPLINE">
    <line class="cls-2" x1="316.47" y1="380.54" x2="317.04" y2="379.69"/>
  </g>
  <g id="SPLINE-237" data-name="SPLINE">
    <line class="cls-2" x1="317.04" y1="379.69" x2="317.04" y2="378.55"/>
  </g>
  <g id="SPLINE-238" data-name="SPLINE">
    <line class="cls-2" x1="317.04" y1="378.55" x2="317.04" y2="378.27"/>
  </g>
  <g id="SPLINE-239" data-name="SPLINE">
    <line class="cls-2" x1="310.8" y1="167.94" x2="309.95" y2="168.51"/>
  </g>
  <g id="SPLINE-240" data-name="SPLINE">
    <line class="cls-2" x1="309.95" y1="168.51" x2="309.1" y2="168.79"/>
  </g>
  <g id="SPLINE-241" data-name="SPLINE">
    <line class="cls-2" x1="309.1" y1="168.79" x2="308.82" y2="168.79"/>
  </g>
  <g id="SPLINE-242" data-name="SPLINE">
    <line class="cls-2" x1="308.82" y1="168.79" x2="307.4" y2="168.79"/>
  </g>
  <g id="SPLINE-243" data-name="SPLINE">
    <line class="cls-2" x1="307.4" y1="168.79" x2="304" y2="168.79"/>
  </g>
  <g id="SPLINE-244" data-name="SPLINE">
    <line class="cls-2" x1="304" y1="168.79" x2="302.87" y2="168.79"/>
  </g>
  <g id="SPLINE-245" data-name="SPLINE">
    <line class="cls-2" x1="302.87" y1="168.79" x2="302.58" y2="168.79"/>
  </g>
  <g id="SPLINE-246" data-name="SPLINE">
    <line class="cls-2" x1="302.58" y1="168.79" x2="301.73" y2="168.51"/>
  </g>
  <g id="SPLINE-247" data-name="SPLINE">
    <line class="cls-2" x1="301.73" y1="168.51" x2="301.17" y2="167.94"/>
  </g>
  <g id="SPLINE-248" data-name="SPLINE">
    <line class="cls-2" x1="301.17" y1="167.94" x2="301.17" y2="167.66"/>
  </g>
  <g id="SPLINE-249" data-name="SPLINE">
    <line class="cls-2" x1="301.17" y1="167.66" x2="301.17" y2="130.24"/>
  </g>
  <g id="SPLINE-250" data-name="SPLINE">
    <line class="cls-2" x1="301.17" y1="130.24" x2="301.17" y2="129.95"/>
  </g>
  <g id="SPLINE-251" data-name="SPLINE">
    <line class="cls-2" x1="301.17" y1="129.95" x2="301.73" y2="129.1"/>
  </g>
  <g id="SPLINE-252" data-name="SPLINE">
    <line class="cls-2" x1="301.73" y1="129.1" x2="302.58" y2="128.82"/>
  </g>
  <g id="SPLINE-253" data-name="SPLINE">
    <line class="cls-2" x1="302.58" y1="128.82" x2="302.87" y2="128.82"/>
  </g>
  <g id="SPLINE-254" data-name="SPLINE">
    <line class="cls-2" x1="302.87" y1="128.82" x2="304.29" y2="128.82"/>
  </g>
  <g id="SPLINE-255" data-name="SPLINE">
    <line class="cls-2" x1="304.29" y1="128.82" x2="307.69" y2="128.82"/>
  </g>
  <g id="SPLINE-256" data-name="SPLINE">
    <line class="cls-2" x1="307.69" y1="128.82" x2="308.82" y2="128.82"/>
  </g>
  <g id="SPLINE-257" data-name="SPLINE">
    <line class="cls-2" x1="308.82" y1="128.82" x2="309.1" y2="128.82"/>
  </g>
  <g id="SPLINE-258" data-name="SPLINE">
    <line class="cls-2" x1="309.1" y1="128.82" x2="309.95" y2="129.1"/>
  </g>
  <g id="SPLINE-259" data-name="SPLINE">
    <line class="cls-2" x1="309.95" y1="129.1" x2="310.8" y2="129.95"/>
  </g>
  <g id="SPLINE-260" data-name="SPLINE">
    <line class="cls-2" x1="310.8" y1="129.95" x2="310.8" y2="167.94"/>
  </g>
  <g id="SPLINE-261" data-name="SPLINE">
    <line class="cls-2" x1="270.55" y1="235.4" x2="449.7" y2="235.4"/>
  </g>
  <g id="SPLINE-262" data-name="SPLINE">
    <line class="cls-2" x1="270.55" y1="425.61" x2="360.13" y2="425.61"/>
  </g>
  <g id="SPLINE-263" data-name="SPLINE">
    <line class="cls-2" x1="270.55" y1="72.98" x2="270.55" y2="806.3"/>
  </g>
  <g id="SPLINE-264" data-name="SPLINE">
    <line class="cls-2" x1="270.55" y1="806.3" x2="360.13" y2="806.3"/>
  </g>
  <g id="SPLINE-265" data-name="SPLINE">
    <line class="cls-2" x1="283.2" y1="72.98" x2="283.2" y2="51.72"/>
  </g>
  <g id="SPLINE-266" data-name="SPLINE">
    <line class="cls-2" x1="283.2" y1="51.72" x2="282.91" y2="50.87"/>
  </g>
  <g id="SPLINE-267" data-name="SPLINE">
    <line class="cls-2" x1="282.91" y1="50.87" x2="282.06" y2="50.3"/>
  </g>
  <g id="SPLINE-268" data-name="SPLINE">
    <line class="cls-2" x1="282.06" y1="50.3" x2="281.78" y2="50.3"/>
  </g>
  <g id="SPLINE-269" data-name="SPLINE">
    <line class="cls-2" x1="281.78" y1="50.3" x2="280.36" y2="50.3"/>
  </g>
  <g id="SPLINE-270" data-name="SPLINE">
    <line class="cls-2" x1="280.36" y1="50.3" x2="276.96" y2="50.3"/>
  </g>
  <g id="SPLINE-271" data-name="SPLINE">
    <line class="cls-2" x1="276.96" y1="50.3" x2="276.11" y2="50.3"/>
  </g>
  <g id="SPLINE-272" data-name="SPLINE">
    <line class="cls-2" x1="276.11" y1="50.3" x2="275.83" y2="50.3"/>
  </g>
  <g id="SPLINE-273" data-name="SPLINE">
    <line class="cls-2" x1="275.83" y1="50.3" x2="274.69" y2="50.02"/>
  </g>
  <g id="SPLINE-274" data-name="SPLINE">
    <line class="cls-2" x1="274.69" y1="50.02" x2="274.13" y2="49.17"/>
  </g>
  <g id="SPLINE-275" data-name="SPLINE">
    <line class="cls-2" x1="274.13" y1="49.17" x2="274.13" y2="48.88"/>
  </g>
  <g id="SPLINE-276" data-name="SPLINE">
    <line class="cls-2" x1="274.13" y1="48.88" x2="274.13" y2="12.6"/>
  </g>
  <g id="SPLINE-277" data-name="SPLINE">
    <line class="cls-2" x1="274.13" y1="12.6" x2="274.13" y2="12.32"/>
  </g>
  <g id="SPLINE-278" data-name="SPLINE">
    <line class="cls-2" x1="274.13" y1="12.32" x2="274.98" y2="11.47"/>
  </g>
  <g id="SPLINE-279" data-name="SPLINE">
    <line class="cls-2" x1="274.98" y1="11.47" x2="275.26" y2="11.47"/>
  </g>
  <g id="SPLINE-280" data-name="SPLINE">
    <line class="cls-2" x1="275.26" y1="11.47" x2="282.06" y2="11.47"/>
  </g>
  <g id="SPLINE-281" data-name="SPLINE">
    <line class="cls-2" x1="282.06" y1="11.47" x2="282.91" y2="11.18"/>
  </g>
  <g id="SPLINE-282" data-name="SPLINE">
    <line class="cls-2" x1="282.91" y1="11.18" x2="283.2" y2="10.62"/>
  </g>
  <g id="SPLINE-283" data-name="SPLINE">
    <line class="cls-2" x1="283.2" y1="10.62" x2="283.2" y2="10.33"/>
  </g>
  <g id="SPLINE-284" data-name="SPLINE">
    <line class="cls-2" x1="283.2" y1="10.33" x2="283.2" y2=".13"/>
  </g>
  <g id="SPLINE-285" data-name="SPLINE">
    <line class="cls-2" x1="283.2" y1=".13" x2="420.57" y2=".13"/>
  </g>
  <g id="SPLINE-286" data-name="SPLINE">
    <line class="cls-2" x1="429.64" y1="48.88" x2="429.64" y2="49.17"/>
  </g>
  <g id="SPLINE-287" data-name="SPLINE">
    <line class="cls-2" x1="429.64" y1="49.17" x2="429.08" y2="50.02"/>
  </g>
  <g id="SPLINE-288" data-name="SPLINE">
    <line class="cls-2" x1="429.08" y1="50.02" x2="427.94" y2="50.3"/>
  </g>
  <g id="SPLINE-289" data-name="SPLINE">
    <line class="cls-2" x1="427.94" y1="50.3" x2="427.66" y2="50.3"/>
  </g>
  <g id="SPLINE-290" data-name="SPLINE">
    <line class="cls-2" x1="427.66" y1="50.3" x2="421.99" y2="50.3"/>
  </g>
  <g id="SPLINE-291" data-name="SPLINE">
    <line class="cls-2" x1="421.99" y1="50.3" x2="421.71" y2="50.3"/>
  </g>
  <g id="SPLINE-292" data-name="SPLINE">
    <line class="cls-2" x1="421.71" y1="50.3" x2="420.86" y2="50.87"/>
  </g>
  <g id="SPLINE-293" data-name="SPLINE">
    <line class="cls-2" x1="420.86" y1="50.87" x2="420.57" y2="51.72"/>
  </g>
  <g id="SPLINE-294" data-name="SPLINE">
    <line class="cls-2" x1="420.57" y1="51.72" x2="420.57" y2="52"/>
  </g>
  <g id="SPLINE-295" data-name="SPLINE">
    <line class="cls-2" x1="420.57" y1="52" x2="420.57" y2="72.98"/>
  </g>
  <g id="SPLINE-296" data-name="SPLINE">
    <line class="cls-2" x1="414.07" y1="72.98" x2="414.07" y2="64.19"/>
  </g>
  <g id="SPLINE-297" data-name="SPLINE">
    <line class="cls-2" x1="414.07" y1="64.19" x2="414.07" y2="63.91"/>
  </g>
  <g id="SPLINE-298" data-name="SPLINE">
    <line class="cls-2" x1="414.07" y1="63.91" x2="413.79" y2="63.06"/>
  </g>
  <g id="SPLINE-299" data-name="SPLINE">
    <line class="cls-2" x1="413.79" y1="63.06" x2="412.94" y2="62.49"/>
  </g>
  <g id="SPLINE-300" data-name="SPLINE">
    <line class="cls-2" x1="412.94" y1="62.49" x2="412.65" y2="62.49"/>
  </g>
  <g id="SPLINE-301" data-name="SPLINE">
    <line class="cls-2" x1="412.65" y1="62.49" x2="408.68" y2="62.49"/>
  </g>
  <g id="SPLINE-302" data-name="SPLINE">
    <line class="cls-2" x1="408.68" y1="62.49" x2="408.4" y2="62.49"/>
  </g>
  <g id="SPLINE-303" data-name="SPLINE">
    <line class="cls-2" x1="408.4" y1="62.49" x2="407.55" y2="63.06"/>
  </g>
  <g id="SPLINE-304" data-name="SPLINE">
    <line class="cls-2" x1="407.55" y1="63.06" x2="406.98" y2="63.91"/>
  </g>
  <g id="SPLINE-305" data-name="SPLINE">
    <line class="cls-2" x1="406.98" y1="63.91" x2="406.98" y2="64.19"/>
  </g>
  <g id="SPLINE-306" data-name="SPLINE">
    <line class="cls-2" x1="406.98" y1="64.19" x2="406.98" y2="72.98"/>
  </g>
  <g id="SPLINE-307" data-name="SPLINE">
    <line class="cls-2" x1="296.85" y1="72.98" x2="296.85" y2="64.19"/>
  </g>
  <g id="SPLINE-308" data-name="SPLINE">
    <line class="cls-2" x1="296.85" y1="64.19" x2="296.85" y2="63.91"/>
  </g>
  <g id="SPLINE-309" data-name="SPLINE">
    <line class="cls-2" x1="296.85" y1="63.91" x2="296.29" y2="63.06"/>
  </g>
  <g id="SPLINE-310" data-name="SPLINE">
    <line class="cls-2" x1="296.29" y1="63.06" x2="295.43" y2="62.49"/>
  </g>
  <g id="SPLINE-311" data-name="SPLINE">
    <line class="cls-2" x1="295.43" y1="62.49" x2="295.15" y2="62.49"/>
  </g>
  <g id="SPLINE-312" data-name="SPLINE">
    <line class="cls-2" x1="295.15" y1="62.49" x2="294.3" y2="62.49"/>
  </g>
  <g id="SPLINE-313" data-name="SPLINE">
    <line class="cls-2" x1="294.3" y1="62.49" x2="292.03" y2="62.49"/>
  </g>
  <g id="SPLINE-314" data-name="SPLINE">
    <line class="cls-2" x1="292.03" y1="62.49" x2="291.18" y2="62.49"/>
  </g>
  <g id="SPLINE-315" data-name="SPLINE">
    <line class="cls-2" x1="291.18" y1="62.49" x2="290.9" y2="62.49"/>
  </g>
  <g id="SPLINE-316" data-name="SPLINE">
    <line class="cls-2" x1="290.9" y1="62.49" x2="290.05" y2="63.06"/>
  </g>
  <g id="SPLINE-317" data-name="SPLINE">
    <line class="cls-2" x1="290.05" y1="63.06" x2="289.48" y2="63.91"/>
  </g>
  <g id="SPLINE-318" data-name="SPLINE">
    <line class="cls-2" x1="289.48" y1="63.91" x2="289.48" y2="64.19"/>
  </g>
  <g id="SPLINE-319" data-name="SPLINE">
    <line class="cls-2" x1="289.48" y1="64.19" x2="289.48" y2="72.98"/>
  </g>
  <g id="SPLINE-320" data-name="SPLINE">
    <line class="cls-2" x1="420.57" y1=".13" x2="420.57" y2="10.33"/>
  </g>
  <g id="SPLINE-321" data-name="SPLINE">
    <line class="cls-2" x1="420.57" y1="10.33" x2="420.57" y2="10.62"/>
  </g>
  <g id="SPLINE-322" data-name="SPLINE">
    <line class="cls-2" x1="420.57" y1="10.62" x2="420.86" y2="11.18"/>
  </g>
  <g id="SPLINE-323" data-name="SPLINE">
    <line class="cls-2" x1="420.86" y1="11.18" x2="421.42" y2="11.47"/>
  </g>
  <g id="SPLINE-324" data-name="SPLINE">
    <line class="cls-2" x1="421.42" y1="11.47" x2="421.71" y2="11.47"/>
  </g>
  <g id="SPLINE-325" data-name="SPLINE">
    <line class="cls-2" x1="421.71" y1="11.47" x2="428.79" y2="11.47"/>
  </g>
  <g id="SPLINE-326" data-name="SPLINE">
    <line class="cls-2" x1="428.79" y1="11.47" x2="429.64" y2="12.32"/>
  </g>
  <g id="SPLINE-327" data-name="SPLINE">
    <line class="cls-2" x1="429.64" y1="12.32" x2="429.64" y2="12.6"/>
  </g>
  <g id="SPLINE-328" data-name="SPLINE">
    <line class="cls-2" x1="429.64" y1="12.6" x2="429.64" y2="48.88"/>
  </g>
  <g id="SPLINE-329" data-name="SPLINE">
    <line class="cls-2" x1="379.12" y1="72.98" x2="379.12" y2="38.11"/>
  </g>
  <g id="SPLINE-330" data-name="SPLINE">
    <line class="cls-2" x1="379.12" y1="38.11" x2="324.69" y2="38.11"/>
  </g>
  <g id="SPLINE-331" data-name="SPLINE">
    <line class="cls-2" x1="324.69" y1="38.11" x2="324.69" y2="72.98"/>
  </g>
  <g id="SPLINE-332" data-name="SPLINE">
    <line class="cls-2" x1="270.55" y1="616.1" x2="360.13" y2="616.1"/>
  </g>
  <g id="SPLINE-333" data-name="SPLINE">
    <line class="cls-1" x1="324.98" y1="698.58" x2="341.99" y2="698.58"/>
  </g>
  <g id="SPLINE-334" data-name="SPLINE">
    <line class="cls-1" x1="341.99" y1="698.58" x2="341.99" y2="702.55"/>
  </g>
  <g id="SPLINE-335" data-name="SPLINE">
    <line class="cls-1" x1="341.99" y1="702.55" x2="324.98" y2="702.55"/>
  </g>
  <g id="SPLINE-336" data-name="SPLINE">
    <line class="cls-1" x1="324.98" y1="702.55" x2="324.98" y2="698.58"/>
  </g>
  <g id="SPLINE-337" data-name="SPLINE">
    <line class="cls-1" x1="316.19" y1="690.36" x2="320.73" y2="690.36"/>
  </g>
  <g id="SPLINE-338" data-name="SPLINE">
    <line class="cls-1" x1="320.73" y1="690.36" x2="320.73" y2="702.55"/>
  </g>
  <g id="SPLINE-339" data-name="SPLINE">
    <line class="cls-1" x1="320.73" y1="702.55" x2="316.19" y2="702.55"/>
  </g>
  <g id="SPLINE-340" data-name="SPLINE">
    <line class="cls-1" x1="316.19" y1="702.55" x2="316.19" y2="690.36"/>
  </g>
  <g id="SPLINE-341" data-name="SPLINE">
    <line class="cls-1" x1="316.19" y1="706.52" x2="320.73" y2="706.52"/>
  </g>
  <g id="SPLINE-342" data-name="SPLINE">
    <line class="cls-1" x1="320.73" y1="706.52" x2="320.73" y2="710.77"/>
  </g>
  <g id="SPLINE-343" data-name="SPLINE">
    <line class="cls-1" x1="320.73" y1="710.77" x2="316.19" y2="710.77"/>
  </g>
  <g id="SPLINE-344" data-name="SPLINE">
    <line class="cls-1" x1="316.19" y1="710.77" x2="316.19" y2="706.52"/>
  </g>
  <g id="SPLINE-345" data-name="SPLINE">
    <line class="cls-1" x1="324.98" y1="706.52" x2="341.99" y2="706.52"/>
  </g>
  <g id="SPLINE-346" data-name="SPLINE">
    <line class="cls-1" x1="341.99" y1="706.52" x2="341.99" y2="710.77"/>
  </g>
  <g id="SPLINE-347" data-name="SPLINE">
    <line class="cls-1" x1="341.99" y1="710.77" x2="324.98" y2="710.77"/>
  </g>
  <g id="SPLINE-348" data-name="SPLINE">
    <line class="cls-1" x1="324.98" y1="710.77" x2="324.98" y2="706.52"/>
  </g>
  <g id="SPLINE-349" data-name="SPLINE">
    <line class="cls-1" x1="316.19" y1="714.74" x2="341.99" y2="714.74"/>
  </g>
  <g id="SPLINE-350" data-name="SPLINE">
    <line class="cls-1" x1="341.99" y1="714.74" x2="341.99" y2="718.71"/>
  </g>
  <g id="SPLINE-351" data-name="SPLINE">
    <line class="cls-1" x1="341.99" y1="718.71" x2="316.19" y2="718.71"/>
  </g>
  <g id="SPLINE-352" data-name="SPLINE">
    <line class="cls-1" x1="316.19" y1="718.71" x2="316.19" y2="714.74"/>
  </g>
  <g id="SPLINE-353" data-name="SPLINE">
    <line class="cls-1" x1="316.19" y1="722.96" x2="333.48" y2="722.96"/>
  </g>
  <g id="SPLINE-354" data-name="SPLINE">
    <line class="cls-1" x1="333.48" y1="722.96" x2="333.48" y2="726.93"/>
  </g>
  <g id="SPLINE-355" data-name="SPLINE">
    <line class="cls-1" x1="333.48" y1="726.93" x2="316.19" y2="726.93"/>
  </g>
  <g id="SPLINE-356" data-name="SPLINE">
    <line class="cls-1" x1="316.19" y1="726.93" x2="316.19" y2="722.96"/>
  </g>
  <g id="SPLINE-357" data-name="SPLINE">
    <line class="cls-1" x1="316.19" y1="730.9" x2="341.99" y2="730.9"/>
  </g>
  <g id="SPLINE-358" data-name="SPLINE">
    <line class="cls-1" x1="341.99" y1="730.9" x2="341.99" y2="734.87"/>
  </g>
  <g id="SPLINE-359" data-name="SPLINE">
    <line class="cls-1" x1="341.99" y1="734.87" x2="316.19" y2="734.87"/>
  </g>
  <g id="SPLINE-360" data-name="SPLINE">
    <line class="cls-1" x1="316.19" y1="734.87" x2="316.19" y2="730.9"/>
  </g>
  <g id="SPLINE-361" data-name="SPLINE">
    <line class="cls-1" x1="294.65" y1="696.6" x2="294.65" y2="729.77"/>
  </g>
  <g id="SPLINE-362" data-name="SPLINE">
    <line class="cls-1" x1="299.47" y1="734.58" x2="299.47" y2="691.78"/>
  </g>
  <g id="SPLINE-363" data-name="SPLINE">
    <line class="cls-1" x1="309.67" y1="689.51" x2="309.67" y2="736.85"/>
  </g>
  <g id="SPLINE-364" data-name="SPLINE">
    <line class="cls-1" x1="311.94" y1="746.49" x2="311.94" y2="679.88"/>
  </g>
  <g id="SPLINE-365" data-name="SPLINE">
    <line class="cls-1" x1="314.49" y1="684.69" x2="314.49" y2="741.67"/>
  </g>
  <g id="SPLINE-366" data-name="SPLINE">
    <line class="cls-1" x1="294.65" y1="734.58" x2="299.47" y2="734.58"/>
  </g>
  <g id="SPLINE-367" data-name="SPLINE">
    <line class="cls-1" x1="299.47" y1="734.58" x2="299.47" y2="736.85"/>
  </g>
  <g id="SPLINE-368" data-name="SPLINE">
    <line class="cls-1" x1="299.47" y1="736.85" x2="309.67" y2="736.85"/>
  </g>
  <g id="SPLINE-369" data-name="SPLINE">
    <line class="cls-1" x1="309.67" y1="736.85" x2="309.67" y2="740.54"/>
  </g>
  <g id="SPLINE-370" data-name="SPLINE">
    <line class="cls-1" x1="309.67" y1="740.54" x2="309.67" y2="748.47"/>
  </g>
  <g id="SPLINE-371" data-name="SPLINE">
    <line class="cls-1" x1="309.67" y1="748.47" x2="309.67" y2="751.31"/>
  </g>
  <g id="SPLINE-372" data-name="SPLINE">
    <line class="cls-1" x1="309.67" y1="751.31" x2="319.59" y2="751.31"/>
  </g>
  <g id="SPLINE-373" data-name="SPLINE">
    <line class="cls-1" x1="319.59" y1="751.31" x2="342.27" y2="751.31"/>
  </g>
  <g id="SPLINE-374" data-name="SPLINE">
    <line class="cls-1" x1="342.27" y1="751.31" x2="349.64" y2="751.31"/>
  </g>
  <g id="SPLINE-375" data-name="SPLINE">
    <line class="cls-1" x1="349.64" y1="751.31" x2="349.64" y2="732.32"/>
  </g>
  <g id="SPLINE-376" data-name="SPLINE">
    <line class="cls-1" x1="349.64" y1="732.32" x2="349.64" y2="675.06"/>
  </g>
  <g id="SPLINE-377" data-name="SPLINE">
    <line class="cls-1" x1="349.64" y1="675.06" x2="309.67" y2="675.06"/>
  </g>
  <g id="SPLINE-378" data-name="SPLINE">
    <line class="cls-1" x1="309.67" y1="675.06" x2="309.67" y2="689.51"/>
  </g>
  <g id="SPLINE-379" data-name="SPLINE">
    <line class="cls-1" x1="309.67" y1="689.51" x2="299.47" y2="689.51"/>
  </g>
  <g id="SPLINE-380" data-name="SPLINE">
    <line class="cls-1" x1="299.47" y1="689.51" x2="299.47" y2="691.78"/>
  </g>
  <g id="SPLINE-381" data-name="SPLINE">
    <line class="cls-1" x1="299.47" y1="691.78" x2="294.65" y2="691.78"/>
  </g>
  <g id="SPLINE-382" data-name="SPLINE">
    <line class="cls-1" x1="294.65" y1="691.78" x2="292.95" y2="692.63"/>
  </g>
  <g id="SPLINE-383" data-name="SPLINE">
    <line class="cls-1" x1="292.95" y1="692.63" x2="288.69" y2="696.03"/>
  </g>
  <g id="SPLINE-384" data-name="SPLINE">
    <line class="cls-1" x1="288.69" y1="696.03" x2="284.73" y2="701.14"/>
  </g>
  <g id="SPLINE-385" data-name="SPLINE">
    <line class="cls-1" x1="284.73" y1="701.14" x2="282.17" y2="707.09"/>
  </g>
  <g id="SPLINE-386" data-name="SPLINE">
    <line class="cls-1" x1="282.17" y1="707.09" x2="281.32" y2="713.32"/>
  </g>
  <g id="SPLINE-387" data-name="SPLINE">
    <line class="cls-1" x1="281.32" y1="713.32" x2="282.17" y2="719.28"/>
  </g>
  <g id="SPLINE-388" data-name="SPLINE">
    <line class="cls-1" x1="282.17" y1="719.28" x2="284.73" y2="725.23"/>
  </g>
  <g id="SPLINE-389" data-name="SPLINE">
    <line class="cls-1" x1="284.73" y1="725.23" x2="288.69" y2="730.33"/>
  </g>
  <g id="SPLINE-390" data-name="SPLINE">
    <line class="cls-1" x1="288.69" y1="730.33" x2="292.95" y2="733.73"/>
  </g>
  <g id="SPLINE-391" data-name="SPLINE">
    <line class="cls-1" x1="292.95" y1="733.73" x2="294.65" y2="734.58"/>
  </g>
  <g id="SPLINE-392" data-name="SPLINE">
    <path class="cls-1" d="M314.4,10.77l2.25,5.14,2.26-5.14h0v5.14-5.14l-2.26,5.14h0l-2.25-5.14v5.14-5.14L.13,763.71,314.4,10.77Z"/>
  </g>
  <g id="SPLINE-393" data-name="SPLINE">
    <path class="cls-1" d="M324.2,14.98c-.05.08-.14.17-.25.29h0c-.11.11-.24.22-.39.33h0c-.15.1-.3.19-.46.26,0,0-.16.07-.31.1q-.15,0-.3,0c-.14-.02-.27-.05-.27-.05-.13-.03-.25-.08-.34-.14,0,0-.1-.07-.18-.15q-.06-.11-.11-.21c-.03-.14-.03-.3-.03-.3,0-.33.1-.58.3-.73,0,0,.2-.15.49-.25q.39-.04.58-.06c.17-.02.31-.04.31-.04.14-.02.27-.05.39-.07,0,0,.11-.03.22-.05q.09-.03.18-.05c.09-.02.18-.05.18-.05-.09.02-.18.05-.28.08,0,0-.09.03-.19.05q-.11.03-.23.05c-.13.02-.27.05-.27.05-.14.02-.31.04-.5.06,0,0-.39.04-.68.13q-.2.15-.4.3c-.1.24-.1.58-.1.58,0,.17.03.3.08.41,0,0,.06.11.13.19q.1.07.2.13c.12.05.25.08.25.08.13.03.27.05.42.05,0,0,.15,0,.3-.03l.32-.14c.15-.09.3-.19.3-.19.15-.1.27-.21.39-.33,0,0,.11-.11.2-.21C324.2,14.98.13,763.71.13,763.71L324.2,14.98Z"/>
  </g>
  <g id="SPLINE-394" data-name="SPLINE">
    <path class="cls-1" d="M324.71,15.92c-.1,0-.18-.03-.26-.07h0c-.07-.03-.13-.08-.18-.14h0c-.05-.06-.08-.14-.08-.25v-2.42c-.01-.09-.04-.19-.04-.19-.03-.1-.08-.19-.16-.29,0,0-.08-.09-.19-.17q-.15-.06-.3-.12c-.2-.03-.44-.03-.44-.03-.25,0-.46.02-.62.07,0,0-.17.05-.31.12q-.11.08-.21.17c-.08.09-.13.2-.13.2-.05.1-.07.21-.07.33,0,0,0-.11.02-.22l.1-.21c.08-.09.18-.18.18-.18.11-.08.24-.15.41-.2,0,0,.17-.05.38-.07h.49c.2.03.34.09.34.09.15.06.26.14.34.23,0,0,.08.09.13.19q.03.1.05.2c.01.09.01.16.01.16v2.35s0,.11.03.19q.05.06.1.12c.06.05.13.08.13.08.08.04.16.06.26.07Z"/>
  </g>
  <g id="SPLINE-395" data-name="SPLINE">
    <path class="cls-1" d="M329.89,13.21c0-.08-.02-.18-.07-.29h0c-.04-.11-.11-.21-.21-.31,0,0-.1-.1-.23-.18q-.16-.07-.32-.14c-.2-.03-.43-.03-.43-.03-.23,0-.44.04-.61.12,0,0-.18.08-.32.18q-.12.13-.24.26c-.09.15-.15.31-.15.31-.06.16-.09.33-.09.49,0,0,0-.16.03-.32q.06-.16.12-.33c.09-.15.21-.27.21-.27.12-.13.27-.23.44-.31,0,0,.18-.08.38-.12h.46c.2.03.36.1.36.1.16.07.29.15.39.25,0,0,.1.1.17.2q.04.11.09.22c.02.09.02.18.02.18v2.71-2.71L.13,763.71,329.89,13.21Z"/>
  </g>
  <g id="SPLINE-396" data-name="SPLINE">
    <path class="cls-1" d="M327.22,12.26v3.66-3.66L.13,763.71,327.22,12.26Z"/>
  </g>
  <g id="SPLINE-397" data-name="SPLINE">
    <path class="cls-1" d="M332.36,14.96c0,.08.02.18.07.29h0c.04.11.12.21.21.31,0,0,.1.1.23.18q.16.07.32.14c.2.03.43.03.43.03.23,0,.44-.04.61-.12,0,0,.18-.08.33-.18q.12-.13.24-.26c.09-.15.15-.31.15-.31.06-.16.09-.33.09-.49,0,0,0,.17-.03.33q-.06.16-.12.32c-.09.15-.21.27-.21.27-.12.13-.27.23-.45.31,0,0-.18.08-.38.12h-.46c-.2-.03-.36-.1-.36-.1-.16-.07-.29-.15-.39-.25,0,0-.1-.1-.17-.2l-.09-.22c-.02-.09-.02-.18-.02-.18v-2.72,2.72L.13,763.71,332.36,14.96Z"/>
  </g>
  <g id="SPLINE-398" data-name="SPLINE">
    <path class="cls-1" d="M335.04,15.91v-3.67,3.67L.13,763.71,335.04,15.91Z"/>
  </g>
  <g id="SPLINE-399" data-name="SPLINE">
    <path class="cls-1" d="M338.17,12.26c0-.26,0-.49.01-.67h0c0-.19.04-.34.09-.46,0,0,.05-.12.13-.21l.22-.11c.16-.03.36-.03.36-.03-.2,0-.36.03-.47.09,0,0-.11.06-.19.15q-.05.12-.1.24c-.03.15-.04.34-.04.34,0,.19-.01.41-.01.67v3.66h0q0-3.66-338.04,747.8L338.17,12.26Z"/>
  </g>
  <g id="SPLINE-400" data-name="SPLINE">
    <path class="cls-1" d="M339.05,12.26h-1.47,1.47L.13,763.71,339.05,12.26Z"/>
  </g>
  <g id="SPLINE-401" data-name="SPLINE">
    <path class="cls-1" d="M343.33,14.98c-.05.08-.14.17-.25.29h0c-.11.11-.24.22-.39.33h0c-.15.1-.3.19-.46.26,0,0-.16.07-.31.1q-.15,0-.3,0c-.14-.02-.27-.05-.27-.05-.13-.03-.25-.08-.34-.14,0,0-.1-.07-.18-.15q-.06-.11-.11-.21c-.03-.14-.03-.3-.03-.3,0-.33.1-.58.3-.73,0,0,.2-.15.49-.25q.39-.04.58-.06c.17-.02.31-.04.31-.04.14-.02.27-.05.38-.07,0,0,.11-.03.22-.05q.09-.03.18-.05c.09-.02.18-.05.18-.05-.09.02-.18.05-.28.08,0,0-.09.03-.2.05q-.11.03-.23.05c-.13.02-.27.05-.27.05-.14.02-.31.04-.5.06,0,0-.39.04-.68.13q-.2.15-.4.3c-.1.24-.1.58-.1.58,0,.17.03.3.08.41,0,0,.06.11.13.19q.1.07.2.13c.12.05.25.08.25.08.13.03.27.05.42.05,0,0,.15,0,.31-.03l.32-.14c.15-.09.3-.19.3-.19.15-.1.27-.21.39-.33,0,0,.11-.11.2-.21C343.33,14.98.13,763.71.13,763.71L343.33,14.98Z"/>
  </g>
  <g id="SPLINE-402" data-name="SPLINE">
    <path class="cls-1" d="M343.84,15.92c-.1,0-.18-.03-.26-.07h0c-.07-.03-.13-.08-.18-.14h0c-.05-.06-.08-.14-.08-.25v-2.42c-.01-.09-.04-.19-.04-.19-.03-.1-.08-.19-.16-.29,0,0-.08-.09-.19-.17l-.3-.12c-.2-.03-.44-.03-.44-.03-.25,0-.46.02-.62.07,0,0-.17.05-.31.12q-.11.08-.21.17c-.08.09-.13.2-.13.2-.05.1-.07.21-.07.33,0,0,0-.11.02-.22q.05-.1.1-.21c.08-.09.18-.18.18-.18.11-.08.24-.15.41-.2,0,0,.17-.05.38-.07h.49c.2.03.34.09.34.09.15.06.26.14.34.23,0,0,.08.09.13.19l.05.2c.01.09.01.16.01.16v2.35s0,.11.03.19q.05.06.1.12c.06.05.13.08.13.08.08.04.16.06.26.07Z"/>
  </g>
  <g id="SPLINE-403" data-name="SPLINE">
    <path class="cls-1" d="M348.52,14.75c0,.15-.05.3-.12.43h0c-.08.14-.18.26-.3.37h0c-.12.11-.26.2-.41.26h0c-.15.06-.31.1-.46.1h0c-.1,0-.21,0-.33-.01,0,0-.12,0-.24-.03q-.12-.04-.25-.08c-.12-.06-.24-.14-.24-.14-.12-.08-.22-.19-.31-.33,0,0-.09-.14-.16-.31q-.05-.21-.11-.42c-.03-.25-.03-.55-.03-.55,0-.29.03-.55.09-.75,0,0,.06-.21.14-.38q.1-.13.19-.27c.11-.1.23-.18.23-.18.12-.07.24-.13.37-.16,0,0,.13-.03.25-.05h.23c.1-.02.19-.02.19-.02.13,0,.27.02.41.07,0,0,.14.05.27.11q.12.08.24.16c.1.1.18.2.18.2.08.11.13.23.14.35,0,0,0-.12-.06-.24q-.08-.11-.16-.22c-.1-.1-.22-.18-.22-.18-.12-.08-.25-.14-.39-.19,0,0-.14-.05-.28-.07h-.22c-.1,0-.22.01-.22.01-.12,0-.24.03-.36.06,0,0-.13.03-.25.09q-.12.07-.24.15c-.11.1-.21.24-.21.24-.1.13-.18.3-.24.51,0,0-.06.21-.09.46v.59c.03.25.08.46.08.46.05.21.12.38.21.52,0,0,.09.14.19.25l.23.16c.12.06.24.1.24.1.12.04.25.07.37.07,0,0,.12,0,.23.01h.26c.15-.03.31-.1.31-.1.15-.06.29-.15.41-.26,0,0,.12-.11.22-.23q.08-.14.15-.28T.13,763.71L348.52,14.75Z"/>
  </g>
  <g id="SPLINE-404" data-name="SPLINE">
    <path class="cls-1" d="M351.73,15.88c-.09,0-.18,0-.27,0h0c-.09,0-.17-.01-.24-.04,0,0-.07-.03-.13-.07q-.04-.06-.09-.13c-.02-.09-.02-.21-.02-.21v-4.56,4.68c.02.09.07.16.07.16.04.06.1.11.17.14,0,0,.07.03.15.04h.18q.09,0-351.43,747.83L351.73,15.88Z"/>
  </g>
  <g id="SPLINE-405" data-name="SPLINE">
    <path class="cls-1" d="M351.75,12.22h-1.52,1.52L.13,763.71,351.75,12.22Z"/>
  </g>
  <g id="SPLINE-406" data-name="SPLINE">
    <path class="cls-1" d="M353.75,14.96c0,.08.02.18.07.29h0c.04.11.12.21.21.31,0,0,.1.1.23.18q.16.07.32.14c.2.03.43.03.43.03.23,0,.44-.04.61-.12,0,0,.18-.08.33-.18q.12-.13.24-.26c.09-.15.15-.31.15-.31.06-.16.09-.33.09-.49,0,0,0,.17-.03.33q-.06.16-.12.32c-.09.15-.21.27-.21.27-.12.13-.27.23-.45.31,0,0-.18.08-.38.12h-.46c-.2-.03-.36-.1-.36-.1-.16-.07-.29-.15-.39-.25,0,0-.1-.1-.17-.2l-.09-.22c-.02-.09-.02-.18-.02-.18v-2.72,2.72L.13,763.71,353.75,14.96Z"/>
  </g>
  <g id="SPLINE-407" data-name="SPLINE">
    <path class="cls-1" d="M356.43,15.91v-3.67,3.67L.13,763.71,356.43,15.91Z"/>
  </g>
  <g id="SPLINE-408" data-name="SPLINE">
    <path class="cls-1" d="M359.77,14.05c0-.2.04-.41.12-.63,0,0,.08-.21.19-.41q.14-.17.27-.34c.15-.14.33-.25.33-.25.17-.11.34-.16.51-.16,0,0-.17,0-.34.05q-.17.11-.34.22c-.15.14-.29.31-.29.31-.14.17-.25.36-.33.58,0,0-.08.21-.12.42,0,.2-359.64,749.87-359.64,749.87L359.77,14.05Z"/>
  </g>
  <g id="SPLINE-409" data-name="SPLINE">
    <path class="cls-1" d="M359.77,12.26v3.66-3.66L.13,763.71,359.77,12.26Z"/>
  </g>
  <g id="SPLINE-410" data-name="SPLINE">
    <path class="cls-1" d="M366.12,13.96c0-.2-.02-.41-.07-.62h0c-.05-.21-.12-.41-.24-.58h0c-.11-.18-.26-.32-.45-.43h0c-.19-.11-.43-.17-.72-.17,0,0-.29,0-.54.05q-.22.09-.45.19c-.19.13-.34.3-.34.3-.15.17-.26.37-.34.61,0,0-.08.24-.12.51v.59c.05.26.14.49.14.49.09.23.22.41.38.56,0,0,.16.15.35.26q.22.08.43.15c.23.03.47.02.47.02.24,0,.45-.05.63-.14,0,0,.18-.09.32-.18l.23-.22c.09-.11.15-.23.15-.23.06-.11.1-.2.11-.27,0,0-.01.07-.05.16q-.06.11-.12.23c-.09.11-.2.22-.2.22-.12.11-.26.21-.44.29,0,0-.18.09-.39.13q-.24,0-.48.01c-.23-.03-.44-.11-.44-.11-.22-.08-.4-.19-.57-.34,0,0-.16-.15-.29-.34q-.09-.23-.19-.45c-.05-.26-.05-.56-.05-.56,0-.29.04-.56.12-.8,0,0,.08-.24.19-.44q.15-.17.3-.34c.19-.13.41-.22.41-.22.22-.09.48-.14.76-.14,0,0,.29,0,.53.06l.38.23c.15.14.26.32.26.32.11.18.19.37.24.58,0,0,.05.21.07.42v.2h-3.25,3.25Z"/>
  </g>
  <g id="SPLINE-411" data-name="SPLINE">
    <path class="cls-1" d="M369.45,12.24c.21,0,.41.03.6.09h0c.19.06.35.16.49.3,0,0,.14.14.25.33q.08.24.16.47c.04.3.04.65.04.65,0,.36-.04.65-.12.89,0,0-.08.24-.19.42q-.14.14-.28.29c-.16.1-.35.16-.35.16-.19.06-.39.09-.6.09,0,0-.21,0-.41-.03q-.18-.06-.37-.11c-.16-.1-.3-.24-.3-.24-.14-.14-.25-.33-.33-.57,0,0-.08-.24-.12-.53v-.71c.04-.3.12-.53.12-.53.08-.24.19-.42.33-.57,0,0,.14-.14.3-.24q.18-.06.37-.11T.13,763.71L369.45,12.24Z"/>
  </g>
  <g id="SPLINE-412" data-name="SPLINE">
    <path class="cls-1" d="M369.45,12.24c.21,0,.41.03.6.09h0c.19.06.35.16.49.3,0,0,.14.14.25.33q.08.24.16.47c.04.3.04.65.04.65,0,.36-.04.65-.12.89,0,0-.08.24-.19.42q-.14.14-.28.29c-.16.1-.35.16-.35.16-.19.06-.39.09-.6.09,0,0-.21,0-.41-.03q-.18-.06-.37-.11c-.16-.1-.3-.24-.3-.24-.14-.14-.25-.33-.33-.57,0,0-.08-.24-.12-.53v-.71c.04-.3.12-.53.12-.53.08-.24.19-.42.33-.57,0,0,.14-.14.3-.24q.18-.06.37-.11T.13,763.71L369.45,12.24Z"/>
  </g>
  <g id="SPLINE-413" data-name="SPLINE">
    <path class="cls-1" d="M370.99,15.92v-5.16,5.16L.13,763.71,370.99,15.92Z"/>
  </g>
  <g id="SPLINE-414" data-name="SPLINE">
    <path class="cls-1" d="M377.94,15.92v-5.16,5.16L.13,763.71,377.94,15.92Z"/>
  </g>
  <g id="SPLINE-415" data-name="SPLINE">
    <path class="cls-1" d="M379.48,12.24c.21,0,.41.03.6.09h0c.19.06.35.16.49.3,0,0,.14.14.25.33q.08.24.16.48c.04.3.04.65.04.65,0,.36-.04.65-.12.89,0,0-.08.24-.19.42l-.28.29c-.16.1-.35.16-.35.16-.19.06-.39.09-.6.09,0,0-.21,0-.41-.03q-.19-.06-.37-.11c-.16-.1-.3-.24-.3-.24-.14-.14-.25-.33-.33-.57,0,0-.08-.24-.12-.53v-.71c.04-.3.12-.53.12-.53.08-.24.19-.43.33-.57,0,0,.14-.14.3-.24q.19-.06.37-.11T.13,763.71L379.48,12.24Z"/>
  </g>
  <g id="SPLINE-416" data-name="SPLINE">
    <path class="cls-1" d="M379.48,12.24c.21,0,.41.03.6.09h0c.19.06.35.16.49.3,0,0,.14.14.25.33q.08.24.16.48c.04.3.04.65.04.65,0,.36-.04.65-.12.89,0,0-.08.24-.19.42l-.28.29c-.16.1-.35.16-.35.16-.19.06-.39.09-.6.09,0,0-.21,0-.41-.03q-.19-.06-.37-.11c-.16-.1-.3-.24-.3-.24-.14-.14-.25-.33-.33-.57,0,0-.08-.24-.12-.53v-.71c.04-.3.12-.53.12-.53.08-.24.19-.43.33-.57,0,0,.14-.14.3-.24q.19-.06.37-.11T.13,763.71L379.48,12.24Z"/>
  </g>
  <g id="SPLINE-417" data-name="SPLINE">
    <path class="cls-1" d="M383.06,17.39c.25.08.45.06.62-.05,0,0,.17-.11.29-.26l.08-.2,1.73-4.57-1.73,4.57s-.08.2-.2.35l-.33.21c-.21.02-.45-.06-.45-.06Z"/>
  </g>
  <g id="SPLINE-418" data-name="SPLINE">
    <path class="cls-1" d="M384.4,15.94l-1.62-3.66,1.62,3.66L.13,763.71,384.4,15.94Z"/>
  </g>
  <g id="SPLINE-419" data-name="SPLINE">
    <path class="cls-1" d="M388.28,15.52v.39-.39L.13,763.71,388.28,15.52Z"/>
  </g>
  <g id="SPLINE-420" data-name="SPLINE">
    <path class="cls-1" d="M388.28,13.27v.39-.39L.13,763.71,388.28,13.27Z"/>
  </g>
  <g id="SPLINE-421" data-name="SPLINE">
    <path class="cls-1" d="M308.17,20.9l1.9-2.67-1.9,2.67h0l-1.9-2.67,1.9,2.67v2.47h0v-2.47Z"/>
  </g>
  <g id="SPLINE-422" data-name="SPLINE">
    <path class="cls-1" d="M315.5,21.74c0,.21-.03.42-.11.62h0c-.07.2-.18.37-.32.52h0c-.15.15-.33.27-.56.36,0,0-.23.09-.5.13q-.32,0-.64,0c-.28-.05-.51-.13-.51-.13-.23-.09-.43-.2-.58-.35,0,0-.15-.15-.27-.31q-.07-.2-.15-.39c-.04-.21-.04-.44-.04-.44v-3.52,3.74c.04.21.11.41.11.41.07.2.19.36.34.51,0,0,.15.14.35.26q.23.09.47.17c.28.05.6.05.6.05.32,0,.59-.04.82-.13,0,0,.23-.09.42-.21q.15-.15.29-.3c.11-.17.18-.37.18-.37.07-.2.11-.4.11-.62v-3.52h0q0,3.52-315.38,745.49L315.5,21.74Z"/>
  </g>
  <g id="SPLINE-423" data-name="SPLINE">
    <path class="cls-1" d="M320.04,20.73c.26,0,.49-.04.67-.11h0c.19-.07.34-.16.45-.28h0c.12-.12.2-.25.25-.4h0c.05-.15.08-.3.07-.46h0c0-.16-.04-.31-.1-.46,0,0-.06-.15-.15-.28q-.12-.12-.24-.23c-.15-.1-.32-.17-.32-.17-.18-.07-.39-.11-.63-.11h-2.03v5.14h2.23s.21,0,.4-.03q.18-.06.36-.12c.16-.09.29-.2.29-.2.13-.11.24-.25.32-.41,0,0,.08-.16.12-.34q0-.2,0-.41c-.04-.18-.13-.35-.13-.35-.09-.16-.2-.31-.35-.42,0,0-.15-.12-.33-.21q-.21-.06-.42-.13c-.23-.03-.47-.03-.47-.03.25,0,.47.03.68.1,0,0,.21.06.39.16q.15.12.3.24c.12.14.2.31.2.31.08.16.13.35.13.55,0,0,0,.2-.04.39q-.08.16-.15.32c-.11.14-.24.25-.24.25-.13.11-.29.2-.47.26,0,0-.18.06-.37.09h-2.44v-5.14h2.27c.21.04.39.11.39.11.18.07.32.17.44.29,0,0,.12.12.21.25q.06.15.12.3c.03.15.04.31.04.31,0,.16-.02.31-.07.46,0,0-.05.15-.14.28q-.12.12-.23.23c-.15.09-.34.16-.34.16-.19.07-.41.11-.67.11h-2.01q2.01,0-317.9,742.98L320.04,20.73Z"/>
  </g>
  <g id="SPLINE-424" data-name="SPLINE">
    <path class="cls-1" d="M325.84,23.42c-.32,0-.62-.05-.9-.14h0c-.28-.09-.52-.24-.73-.45,0,0-.21-.21-.38-.48l-.24-.68c-.06-.42-.06-.91-.06-.91,0-.49.06-.9.18-1.24,0,0,.12-.34.29-.62q.21-.21.42-.42c.24-.15.52-.24.52-.24.28-.09.58-.14.9-.14,0,0,.32,0,.62.05q.28.09.56.19c.24.15.45.36.45.36.21.21.38.49.5.83,0,0,.12.34.18.75v.98c-.06.42-.18.75-.18.75-.12.34-.29.61-.5.82,0,0-.21.21-.45.36q-.28.09-.56.19T.13,763.71L325.84,23.42Z"/>
  </g>
  <g id="SPLINE-425" data-name="SPLINE">
    <path class="cls-1" d="M325.84,23.42c-.32,0-.62-.05-.9-.14h0c-.28-.09-.52-.24-.73-.45,0,0-.21-.21-.38-.48l-.24-.68c-.06-.42-.06-.91-.06-.91,0-.49.06-.9.18-1.24,0,0,.12-.34.29-.62q.21-.21.42-.42c.24-.15.52-.24.52-.24.28-.09.58-.14.9-.14,0,0,.32,0,.62.05q.28.09.56.19c.24.15.45.36.45.36.21.21.38.49.5.83,0,0,.12.34.18.75v.98c-.06.42-.18.75-.18.75-.12.34-.29.61-.5.82,0,0-.21.21-.45.36q-.28.09-.56.19T.13,763.71L325.84,23.42Z"/>
  </g>
  <g id="SPLINE-426" data-name="SPLINE">
    <path class="cls-1" d="M334.36,23.38v-5.14h1.67c.33,0,.61.04.82.11,0,0,.22.07.39.17q.12.12.25.24c.09.14.14.3.14.3.05.16.08.32.09.5,0,0,0,.17-.02.34q-.05.17-.09.34c-.08.15-.2.28-.2.28-.12.13-.28.24-.48.32,0,0-.2.08-.45.12h-2.11,1.81s.3,0,.54-.04q.2-.08.4-.17c.16-.11.28-.24.28-.24.12-.13.21-.28.25-.45,0,0,.05-.17.07-.34q0-.17-.01-.34c-.03-.17-.08-.32-.08-.32-.05-.16-.14-.3-.27-.42,0,0-.13-.12-.3-.22q-.21-.07-.43-.15c-.27-.04-.61-.04-.61-.04h-1.67v5.14L.13,763.71,334.36,23.38Z"/>
  </g>
  <g id="SPLINE-427" data-name="SPLINE">
    <path class="cls-1" d="M340.32,21.51c0-.2.04-.41.12-.63,0,0,.08-.21.19-.41q.14-.17.27-.34c.15-.14.33-.25.33-.25.17-.11.34-.16.51-.16,0,0-.17,0-.34.05q-.17.11-.34.22c-.15.14-.29.31-.29.31-.14.17-.25.36-.33.58,0,0-.08.21-.12.42,0,.2-340.19,742.41-340.19,742.41L340.32,21.51Z"/>
  </g>
  <g id="SPLINE-428" data-name="SPLINE">
    <path class="cls-1" d="M340.32,19.72v3.66-3.66L.13,763.71,340.32,19.72Z"/>
  </g>
  <g id="SPLINE-429" data-name="SPLINE">
    <path class="cls-1" d="M346.67,21.42c0-.2-.02-.41-.07-.62h0c-.05-.21-.12-.41-.24-.58h0c-.11-.18-.26-.32-.45-.43h0c-.19-.11-.43-.17-.72-.17,0,0-.29,0-.54.05l-.45.19c-.19.13-.34.3-.34.3-.15.17-.26.37-.34.61,0,0-.08.24-.12.51v.59c.05.26.14.49.14.49.09.23.22.41.38.56,0,0,.16.15.35.26q.22.08.43.15c.23.03.47.02.47.02.24,0,.45-.05.63-.14,0,0,.18-.09.32-.18l.23-.22c.09-.11.15-.23.15-.23.06-.11.1-.2.11-.27,0,0-.01.07-.05.16q-.06.11-.12.23c-.09.11-.2.22-.2.22-.12.11-.26.21-.44.29,0,0-.18.09-.39.13q-.24,0-.48.01c-.23-.03-.44-.11-.44-.11-.22-.08-.4-.19-.57-.34,0,0-.16-.15-.29-.34q-.09-.23-.19-.45c-.05-.26-.05-.56-.05-.56,0-.29.04-.56.12-.8,0,0,.08-.24.19-.44q.15-.17.3-.34c.19-.13.41-.22.41-.22.22-.09.48-.14.76-.14,0,0,.29,0,.53.06q.19.11.38.23c.15.14.26.32.26.32.11.18.19.37.24.58,0,0,.05.21.07.42v.2h-3.25,3.25Z"/>
  </g>
  <g id="SPLINE-430" data-name="SPLINE">
    <path class="cls-1" d="M351.42,22.21c0,.15-.05.3-.12.43h0c-.08.14-.18.26-.3.37h0c-.12.11-.26.2-.41.26h0c-.15.06-.31.1-.46.1h0c-.1,0-.21,0-.33-.01,0,0-.12,0-.24-.03q-.12-.04-.25-.08c-.12-.06-.24-.14-.24-.14-.12-.08-.22-.19-.31-.33,0,0-.09-.14-.16-.31l-.11-.42c-.03-.25-.03-.55-.03-.55,0-.29.03-.55.09-.75,0,0,.06-.21.14-.38q.1-.13.19-.27c.11-.1.23-.18.23-.18.12-.07.24-.13.37-.16,0,0,.13-.03.25-.05q.12,0,.23-.01c.1,0,.19,0,.19,0,.13,0,.27.02.41.07,0,0,.14.05.27.11l.24.16c.1.1.18.2.18.2.08.11.13.23.14.35,0,0,0-.12-.06-.24q-.08-.11-.16-.22c-.1-.1-.22-.18-.22-.18-.12-.08-.25-.14-.39-.19,0,0-.14-.05-.28-.07h-.22c-.1,0-.22.01-.22.01-.12,0-.24.03-.36.06,0,0-.13.03-.25.09q-.12.07-.24.15c-.11.1-.21.24-.21.24-.1.13-.18.3-.24.51,0,0-.06.21-.09.46v.59c.03.25.08.46.08.46.05.21.12.38.21.52,0,0,.09.14.19.25l.23.16c.12.06.24.1.24.1.12.04.25.07.37.07,0,0,.12,0,.23.01h.26c.15-.03.31-.1.31-.1.15-.06.29-.15.41-.26,0,0,.12-.11.22-.23q.08-.14.16-.28T.13,763.71L351.42,22.21Z"/>
  </g>
  <g id="SPLINE-431" data-name="SPLINE">
    <path class="cls-1" d="M353.92,19.71v3.66-3.66L.13,763.71,353.92,19.71Z"/>
  </g>
  <g id="SPLINE-432" data-name="SPLINE">
    <path class="cls-1" d="M353.92,18.23v.13-.13L.13,763.71,353.92,18.23Z"/>
  </g>
  <g id="SPLINE-433" data-name="SPLINE">
    <path class="cls-1" d="M358.87,20.37s0-.1-.04-.18h0c-.03-.08-.09-.15-.18-.23h0c-.08-.07-.2-.14-.35-.2h0c-.15-.06-.34-.09-.57-.1h0c-.46,0-.8.05-1.01.19,0,0-.22.14-.32.34v.41c.03.12.08.21.08.21.05.1.11.17.18.23,0,0,.07.06.14.1q.07.03.15.06c.06.02.1.04.1.04l1.37.4s.04,0,.1.03q.07.03.14.06c.07.05.13.11.13.11.07.06.12.14.17.23,0,0,.05.09.07.2v.27c-.03.12-.1.24-.1.24-.07.12-.16.22-.28.31,0,0-.12.09-.25.16q-.16.05-.32.1c-.17.02-.35.02-.35.02-.18,0-.36-.02-.53-.07,0,0-.17-.05-.31-.11q-.13-.08-.25-.16c-.1-.1-.18-.22-.18-.22-.08-.12-.12-.24-.12-.38,0,0,0,.14.04.27q.08.12.16.23c.1.1.23.18.23.18.13.08.27.14.44.19,0,0,.17.05.34.07h.36c.17-.02.33-.07.33-.07.16-.05.3-.12.41-.21,0,0,.12-.09.21-.19q.07-.12.14-.23c.03-.12.03-.26.03-.26,0-.13-.02-.24-.07-.34,0,0-.05-.09-.11-.17l-.13-.12c-.07-.05-.14-.08-.14-.08-.07-.03-.13-.05-.17-.06l-1.37-.4h-.04c-.06-.04-.13-.06-.13-.06-.07-.03-.14-.07-.21-.13,0,0-.07-.06-.13-.14l-.1-.19c-.03-.12-.03-.25-.03-.25,0-.28.11-.48.32-.62,0,0,.22-.14.55-.2q.46,0,.69.02c.19.03.34.09.34.09.15.06.27.13.35.2,0,0,.08.07.14.15q.03.08.07.16T.13,763.71L358.87,20.37Z"/>
  </g>
  <g id="SPLINE-434" data-name="SPLINE">
    <path class="cls-1" d="M361.51,19.71v3.66-3.66L.13,763.71,361.51,19.71Z"/>
  </g>
  <g id="SPLINE-435" data-name="SPLINE">
    <path class="cls-1" d="M361.51,18.23v.13-.13L.13,763.71,361.51,18.23Z"/>
  </g>
  <g id="SPLINE-436" data-name="SPLINE">
    <path class="cls-1" d="M365.58,23.38c-.23,0-.44-.03-.64-.09h0c-.2-.06-.37-.16-.52-.3,0,0-.15-.14-.27-.33q-.09-.24-.17-.48c-.04-.3-.04-.66-.04-.66,0-.36.04-.66.13-.9,0,0,.09-.24.21-.43q.15-.14.3-.29c.17-.1.37-.16.37-.16.2-.06.41-.09.64-.09,0,0,.23,0,.44.03q.2.06.4.12c.17.1.32.24.32.24.15.14.27.33.35.57,0,0,.09.24.13.54v.72c-.04.3-.13.54-.13.54-.09.24-.2.43-.35.57,0,0-.15.14-.32.24q-.2.06-.4.12T.13,763.71L365.58,23.38Z"/>
  </g>
  <g id="SPLINE-437" data-name="SPLINE">
    <path class="cls-1" d="M365.58,23.38c-.23,0-.44-.03-.64-.09h0c-.2-.06-.37-.16-.52-.3,0,0-.15-.14-.27-.33q-.09-.24-.17-.48c-.04-.3-.04-.66-.04-.66,0-.36.04-.66.13-.9,0,0,.09-.24.21-.43q.15-.14.3-.29c.17-.1.37-.16.37-.16.2-.06.41-.09.64-.09,0,0,.23,0,.44.03q.2.06.4.12c.17.1.32.24.32.24.15.14.27.33.35.57,0,0,.09.24.13.54v.72c-.04.3-.13.54-.13.54-.09.24-.2.43-.35.57,0,0-.15.14-.32.24q-.2.06-.4.12T.13,763.71L365.58,23.38Z"/>
  </g>
  <g id="SPLINE-438" data-name="SPLINE">
    <path class="cls-1" d="M372.41,20.67c0-.08-.02-.18-.07-.29h0c-.04-.11-.11-.21-.21-.31,0,0-.1-.1-.23-.18q-.16-.07-.32-.14c-.2-.03-.43-.03-.43-.03-.23,0-.44.04-.61.12,0,0-.18.08-.32.18q-.12.13-.24.26c-.09.15-.15.31-.15.31-.06.16-.09.33-.09.49,0,0,0-.16.03-.32q.06-.16.12-.33c.09-.15.21-.27.21-.27.12-.13.27-.23.44-.31,0,0,.18-.08.38-.12h.46c.2.03.36.1.36.1.16.07.29.15.39.25,0,0,.1.1.17.2q.04.11.09.22c.02.09.02.18.02.18v2.71-2.71L.13,763.71,372.41,20.67Z"/>
  </g>
  <g id="SPLINE-439" data-name="SPLINE">
    <path class="cls-1" d="M369.74,19.72v3.66-3.66L.13,763.71,369.74,19.72Z"/>
  </g>
  <g id="SPLINE-440" data-name="SPLINE">
    <path class="cls-1" d="M378.93,18.23l2.25,5.14,2.26-5.14h0v5.14-5.14l-2.26,5.14h0l-2.25-5.14v5.14-5.14L.13,763.71,378.93,18.23Z"/>
  </g>
  <g id="SPLINE-441" data-name="SPLINE">
    <path class="cls-1" d="M386.87,18.23h3.25-3.25v5.14-5.14Z"/>
  </g>
  <g id="SPLINE-442" data-name="SPLINE">
    <path class="cls-1" d="M386.87,20.73h2.95-2.95L.13,763.71,386.87,20.73Z"/>
  </g>
  <g id="SPLINE-443" data-name="SPLINE">
    <path class="cls-1" d="M394.4,20.88h1.87c0,.44-.05.82-.15,1.13h0c-.1.32-.24.58-.42.79h0c-.18.21-.4.36-.66.46,0,0-.26.1-.55.15h-.64c-.3-.05-.58-.14-.58-.14-.28-.09-.52-.24-.73-.44,0,0-.21-.2-.37-.47q-.12-.33-.24-.67c-.06-.41-.06-.89-.06-.89,0-.49.05-.9.16-1.24,0,0,.1-.34.25-.61l.39-.41c.24-.15.53-.24.53-.24.29-.09.61-.14.97-.14,0,0,.51,0,.95.1q.36.19.71.39c.26.33.43.79.43.79-.17-.46-.43-.79-.79-.98,0,0-.36-.19-.79-.29h-.87c-.32.05-.61.14-.61.14-.29.09-.53.24-.72.45,0,0-.2.21-.35.48q-.1.34-.21.67c-.05.41-.05.9-.05.9,0,.49.06.89.18,1.23,0,0,.12.33.28.6q.21.2.41.41c.24.15.52.24.52.24.28.09.58.14.9.14,0,0,.32,0,.61-.05q.26-.1.52-.2c.22-.15.4-.36.4-.36.18-.21.32-.47.42-.79,0,0,.1-.32.15-.7v-.44q-1.87,0-396.14,742.83L394.4,20.88Z"/>
  </g>
  <g id="SPLINE-444" data-name="SPLINE">
    <path class="cls-1" d="M396.27,20.88v2.5-2.5L.13,763.71,396.27,20.88Z"/>
  </g>
  <g id="SPLINE-445" data-name="SPLINE">
    <path class="cls-1" d="M323.59,32.31c.25.08.45.06.62-.05,0,0,.17-.11.29-.26l.08-.2,1.73-4.57-1.73,4.57s-.08.2-.2.35q-.17.11-.33.21c-.21.02-.45-.06-.45-.06Z"/>
  </g>
  <g id="SPLINE-446" data-name="SPLINE">
    <path class="cls-1" d="M324.93,30.86l-1.62-3.66,1.62,3.66L.13,763.71,324.93,30.86Z"/>
  </g>
  <g id="SPLINE-447" data-name="SPLINE">
    <path class="cls-1" d="M328.4,29.88c0,.08.02.18.07.29h0c.04.11.12.21.21.31,0,0,.1.1.23.18q.16.07.32.14c.2.03.43.03.43.03.23,0,.44-.04.61-.12,0,0,.18-.08.33-.18q.12-.13.24-.26c.09-.15.15-.31.15-.31.06-.16.09-.33.09-.49,0,0,0,.17-.03.33q-.06.16-.12.32c-.09.15-.21.27-.21.27-.12.13-.27.23-.45.31,0,0-.18.08-.38.12h-.46c-.2-.03-.36-.1-.36-.1-.16-.07-.29-.15-.39-.25,0,0-.1-.1-.17-.2q-.04-.11-.09-.22c-.02-.1-.02-.18-.02-.18v-2.72,2.72L.13,763.71,328.4,29.88Z"/>
  </g>
  <g id="SPLINE-448" data-name="SPLINE">
    <path class="cls-1" d="M331.08,30.83v-3.67,3.67L.13,763.71,331.08,30.83Z"/>
  </g>
  <g id="SPLINE-449" data-name="SPLINE">
    <path class="cls-1" d="M334.4,30.84v-5.16,5.16L.13,763.71,334.4,30.84Z"/>
  </g>
  <g id="SPLINE-450" data-name="SPLINE">
    <path class="cls-1" d="M335.94,27.16c.21,0,.41.03.6.09h0c.19.06.35.16.49.3,0,0,.14.14.25.33q.08.24.16.48c.04.3.04.65.04.65,0,.36-.04.65-.12.89,0,0-.08.24-.19.42l-.28.29c-.16.1-.35.16-.35.16-.19.06-.39.09-.6.09,0,0-.21,0-.41-.03q-.19-.06-.37-.11c-.16-.1-.3-.24-.3-.24-.14-.14-.25-.33-.33-.57,0,0-.08-.24-.12-.53v-.71c.04-.3.12-.53.12-.53.08-.24.19-.43.33-.57,0,0,.14-.14.3-.24q.19-.06.37-.11T.13,763.71L335.94,27.16Z"/>
  </g>
  <g id="SPLINE-451" data-name="SPLINE">
    <path class="cls-1" d="M335.94,27.16c.21,0,.41.03.6.09h0c.19.06.35.16.49.3,0,0,.14.14.25.33q.08.24.16.48c.04.3.04.65.04.65,0,.36-.04.65-.12.89,0,0-.08.24-.19.42l-.28.29c-.16.1-.35.16-.35.16-.19.06-.39.09-.6.09,0,0-.21,0-.41-.03q-.19-.06-.37-.11c-.16-.1-.3-.24-.3-.24-.14-.14-.25-.33-.33-.57,0,0-.08-.24-.12-.53v-.71c.04-.3.12-.53.12-.53.08-.24.19-.43.33-.57,0,0,.14-.14.3-.24q.19-.06.37-.11T.13,763.71L335.94,27.16Z"/>
  </g>
  <g id="SPLINE-452" data-name="SPLINE">
    <path class="cls-1" d="M340.88,30.84c-.23,0-.44-.03-.64-.09h0c-.2-.06-.37-.16-.52-.3,0,0-.15-.14-.27-.33q-.09-.24-.17-.48c-.04-.3-.04-.66-.04-.66,0-.36.04-.66.13-.9,0,0,.09-.24.21-.43q.15-.14.3-.29c.17-.1.37-.16.37-.16.2-.06.41-.09.64-.09,0,0,.23,0,.44.03q.2.06.4.12c.17.1.32.24.32.24.15.14.27.33.35.57,0,0,.09.24.13.54v.72c-.04.3-.13.54-.13.54-.09.24-.2.43-.35.57,0,0-.15.14-.32.24l-.4.12q-.21.03-341.2,732.91L340.88,30.84Z"/>
  </g>
  <g id="SPLINE-453" data-name="SPLINE">
    <path class="cls-1" d="M340.88,30.84c-.23,0-.44-.03-.64-.09h0c-.2-.06-.37-.16-.52-.3,0,0-.15-.14-.27-.33q-.09-.24-.17-.48c-.04-.3-.04-.66-.04-.66,0-.36.04-.66.13-.9,0,0,.09-.24.21-.43q.15-.14.3-.29c.17-.1.37-.16.37-.16.2-.06.41-.09.64-.09,0,0,.23,0,.44.03q.2.06.4.12c.17.1.32.24.32.24.15.14.27.33.35.57,0,0,.09.24.13.54v.72c-.04.3-.13.54-.13.54-.09.24-.2.43-.35.57,0,0-.15.14-.32.24l-.4.12q-.21.03-341.2,732.91L340.88,30.84Z"/>
  </g>
  <g id="SPLINE-454" data-name="SPLINE">
    <path class="cls-1" d="M350.02,30.84v-2.71h0c0-.08-.02-.18-.07-.29,0,0-.04-.11-.11-.21q-.1-.1-.19-.2c-.13-.08-.28-.15-.28-.15-.16-.07-.35-.1-.58-.1,0,0-.23,0-.43.04q-.16.08-.32.16c-.13.1-.23.23-.23.23-.1.13-.17.27-.21.44,0,0-.04.16-.07.33q0,.16,0,0c.02-.16.07-.33.07-.33.04-.16.11-.31.21-.44,0,0,.1-.13.23-.23q.16-.08.32-.16c.2-.04.43-.04.43-.04.23,0,.43.03.58.1,0,0,.16.07.28.15q.1.1.19.2c.07.1.11.21.11.21.04.11.07.2.07.29v2.71L.13,763.71,350.02,30.84Z"/>
  </g>
  <g id="SPLINE-455" data-name="SPLINE">
    <path class="cls-1" d="M347.52,28.13c0-.08-.02-.18-.05-.29h0c-.03-.11-.09-.21-.17-.31,0,0-.08-.1-.2-.18q-.15-.07-.3-.14c-.19-.03-.42-.03-.42-.03-.23,0-.43.04-.6.12,0,0-.17.08-.31.18q-.11.13-.22.26c-.08.15-.13.31-.13.31-.05.16-.08.33-.08.49,0,0,0-.16.03-.32q.05-.16.11-.33c.08-.15.19-.27.19-.27.11-.13.25-.23.41-.31,0,0,.17-.08.37-.12h.46c.19.03.34.1.34.1.15.07.26.15.35.25,0,0,.08.1.14.2l.06.22c.02.09.02.18.02.18v2.71-2.71L.13,763.71,347.52,28.13Z"/>
  </g>
  <g id="SPLINE-456" data-name="SPLINE">
    <path class="cls-1" d="M345.04,27.18v3.66-3.66L.13,763.71,345.04,27.18Z"/>
  </g>
  <g id="SPLINE-457" data-name="SPLINE">
    <path class="cls-1" d="M352.83,27.18c0-.26,0-.49.01-.67h0c0-.19.04-.34.09-.46,0,0,.05-.12.13-.21l.22-.11c.16-.03.36-.03.36-.03-.2,0-.36.03-.47.09,0,0-.11.06-.19.15l-.1.24c-.03.15-.04.34-.04.34,0,.19-.01.41-.01.67v3.66h0q0-3.66-352.7,732.88L352.83,27.18Z"/>
  </g>
  <g id="SPLINE-458" data-name="SPLINE">
    <path class="cls-1" d="M353.71,27.18h-1.47,1.47L.13,763.71,353.71,27.18Z"/>
  </g>
  <g id="SPLINE-459" data-name="SPLINE">
    <path class="cls-1" d="M356.88,27.14c.21,0,.41.03.6.09h0c.19.06.35.16.49.3,0,0,.14.14.25.33q.08.24.16.47c.04.3.04.65.04.65,0,.36-.04.65-.12.89,0,0-.08.24-.19.42q-.14.14-.28.29c-.16.1-.35.16-.35.16-.19.06-.39.09-.6.09,0,0-.21,0-.41-.03q-.18-.06-.37-.11c-.16-.1-.3-.24-.3-.24-.14-.14-.25-.33-.33-.57,0,0-.08-.24-.12-.53v-.71c.04-.3.12-.53.12-.53.08-.24.19-.42.33-.57,0,0,.14-.14.3-.24q.18-.06.37-.11T.13,763.71L356.88,27.14Z"/>
  </g>
  <g id="SPLINE-460" data-name="SPLINE">
    <path class="cls-1" d="M356.88,27.14c.21,0,.41.03.6.09h0c.19.06.35.16.49.3,0,0,.14.14.25.33q.08.24.16.47c.04.3.04.65.04.65,0,.36-.04.65-.12.89,0,0-.08.24-.19.42q-.14.14-.28.29c-.16.1-.35.16-.35.16-.19.06-.39.09-.6.09,0,0-.21,0-.41-.03q-.18-.06-.37-.11c-.16-.1-.3-.24-.3-.24-.14-.14-.25-.33-.33-.57,0,0-.08-.24-.12-.53v-.71c.04-.3.12-.53.12-.53.08-.24.19-.42.33-.57,0,0,.14-.14.3-.24q.18-.06.37-.11T.13,763.71L356.88,27.14Z"/>
  </g>
  <g id="SPLINE-461" data-name="SPLINE">
    <path class="cls-1" d="M355.56,31.58c.04.21.18.38.42.5h0c.24.12.55.19.91.2,0,0,.18,0,.37-.02q.18-.06.36-.12c.16-.08.31-.19.31-.19.14-.11.26-.23.35-.38,0,0,.09-.14.13-.3v-4.07,3.9s0,.17-.04.32q-.09.14-.18.29c-.12.13-.26.23-.26.23-.14.11-.31.19-.49.25,0,0-.18.06-.36.09q-.18,0-.55-.02c-.3-.07-.55-.19-.55-.19-.24-.12-.39-.29-.42-.5Z"/>
  </g>
  <g id="SPLINE-462" data-name="SPLINE">
    <path class="cls-1" d="M360.92,30.44v.39-.39L.13,763.71,360.92,30.44Z"/>
  </g>
  <g id="SPLINE-463" data-name="SPLINE">
    <path class="cls-1" d="M366.29,29.67c0,.15-.05.3-.12.44h0c-.08.14-.18.26-.3.37h0c-.12.11-.26.2-.41.26h0c-.15.06-.31.1-.46.1h0c-.1,0-.21,0-.33-.01,0,0-.12,0-.24-.03q-.12-.04-.25-.08c-.12-.06-.24-.14-.24-.14-.12-.08-.22-.19-.31-.33,0,0-.09-.14-.16-.31l-.11-.42c-.03-.25-.03-.55-.03-.55,0-.29.03-.55.09-.75,0,0,.06-.21.14-.38q.1-.13.19-.27c.11-.1.23-.18.23-.18.12-.07.24-.13.37-.16,0,0,.13-.03.25-.05q.12,0,.23-.01c.1,0,.19,0,.19,0,.13,0,.27.02.41.07,0,0,.14.05.27.11l.24.16c.1.1.18.2.18.2.08.11.13.23.14.35,0,0,0-.12-.06-.24q-.08-.11-.16-.22c-.1-.1-.22-.18-.22-.18-.12-.08-.25-.14-.39-.19,0,0-.14-.05-.28-.07h-.22c-.1,0-.22.01-.22.01-.12,0-.24.03-.36.06,0,0-.13.03-.25.09q-.12.07-.24.15c-.11.1-.21.24-.21.24-.1.13-.18.3-.24.51,0,0-.06.21-.09.46v.59c.03.25.08.46.08.46.05.21.12.38.21.52,0,0,.09.14.19.25l.23.16c.12.06.24.1.24.1.12.04.25.07.37.07,0,0,.12,0,.23.01h.26c.15-.03.31-.1.31-.1.15-.06.29-.15.41-.26,0,0,.12-.11.22-.23q.08-.14.16-.28T.13,763.71L366.29,29.67Z"/>
  </g>
  <g id="SPLINE-464" data-name="SPLINE">
    <path class="cls-1" d="M369.65,30.84c-.23,0-.44-.03-.64-.09h0c-.2-.06-.37-.16-.52-.3,0,0-.15-.14-.27-.33q-.09-.24-.17-.48c-.04-.3-.04-.66-.04-.66,0-.36.04-.66.13-.9,0,0,.09-.24.21-.43q.15-.14.3-.29c.17-.1.37-.16.37-.16.2-.06.41-.09.64-.09,0,0,.23,0,.44.03q.2.06.4.12c.17.1.32.24.32.24.15.14.27.33.35.57,0,0,.09.24.13.54v.72c-.04.3-.13.54-.13.54-.09.24-.2.43-.35.57,0,0-.15.14-.32.24l-.4.12q-.21.03-369.96,732.91L369.65,30.84Z"/>
  </g>
  <g id="SPLINE-465" data-name="SPLINE">
    <path class="cls-1" d="M369.65,30.84c-.23,0-.44-.03-.64-.09h0c-.2-.06-.37-.16-.52-.3,0,0-.15-.14-.27-.33q-.09-.24-.17-.48c-.04-.3-.04-.66-.04-.66,0-.36.04-.66.13-.9,0,0,.09-.24.21-.43q.15-.14.3-.29c.17-.1.37-.16.37-.16.2-.06.41-.09.64-.09,0,0,.23,0,.44.03q.2.06.4.12c.17.1.32.24.32.24.15.14.27.33.35.57,0,0,.09.24.13.54v.72c-.04.3-.13.54-.13.54-.09.24-.2.43-.35.57,0,0-.15.14-.32.24l-.4.12q-.21.03-369.96,732.91L369.65,30.84Z"/>
  </g>
  <g id="SPLINE-466" data-name="SPLINE">
    <path class="cls-1" d="M378.78,30.84v-2.71h0c0-.08-.02-.18-.07-.29,0,0-.04-.11-.11-.21q-.1-.1-.19-.2c-.13-.08-.28-.15-.28-.15-.16-.07-.35-.1-.58-.1,0,0-.23,0-.43.04q-.16.08-.32.16c-.13.1-.23.23-.23.23-.1.13-.17.27-.21.44,0,0-.04.16-.07.33q0,.16,0,0c.02-.16.07-.33.07-.33.04-.16.11-.31.21-.44,0,0,.1-.13.23-.23q.16-.08.32-.16c.2-.04.43-.04.43-.04.23,0,.43.03.58.1,0,0,.16.07.28.15q.1.1.19.2c.07.1.11.21.11.21.04.11.07.2.07.29v2.71L.13,763.71,378.78,30.84Z"/>
  </g>
  <g id="SPLINE-467" data-name="SPLINE">
    <path class="cls-1" d="M376.28,28.13c0-.08-.02-.18-.05-.29h0c-.03-.11-.09-.21-.17-.31,0,0-.08-.1-.2-.18q-.15-.07-.3-.14c-.19-.03-.42-.03-.42-.03-.23,0-.43.04-.6.12,0,0-.17.08-.31.18l-.22.26c-.08.15-.13.31-.13.31-.05.16-.08.33-.08.49,0,0,0-.16.03-.32q.05-.16.11-.33c.08-.15.19-.27.19-.27.11-.13.25-.23.41-.31,0,0,.17-.08.37-.12h.46c.19.03.34.1.34.1.15.07.26.15.35.25,0,0,.09.1.14.2q.03.11.06.22c.02.09.02.18.02.18v2.71-2.71L.13,763.71,376.28,28.13Z"/>
  </g>
  <g id="SPLINE-468" data-name="SPLINE">
    <path class="cls-1" d="M373.81,27.18v3.66-3.66L.13,763.71,373.81,27.18Z"/>
  </g>
  <g id="SPLINE-469" data-name="SPLINE">
    <path class="cls-1" d="M388.28,15.52v.39-.39L.13,763.71,388.28,15.52Z"/>
  </g>
  <g id="SPLINE-470" data-name="SPLINE">
    <path class="cls-1" d="M388.28,13.27v.39-.39L.13,763.71,388.28,13.27Z"/>
  </g>
  <g id="SPLINE-471" data-name="SPLINE">
    <path class="cls-1" d="M353.92,18.23v.13-.13L.13,763.71,353.92,18.23Z"/>
  </g>
  <g id="SPLINE-472" data-name="SPLINE">
    <path class="cls-1" d="M361.51,18.23v.13-.13L.13,763.71,361.51,18.23Z"/>
  </g>
  <g id="SPLINE-473" data-name="SPLINE">
    <path class="cls-1" d="M360.92,30.44v.39-.39L.13,763.71,360.92,30.44Z"/>
  </g>
</svg>