<?xml version="1.0"?>
<!-- Created with xTool Creative Space (https://www.xtool.com/pages/software) -->
<svg xmlns="http://www.w3.org/2000/svg" xmlns:xlink="http://www.w3.org/1999/xlink" xmlns:xcs="https://www.xtool.com/pages/software" version="1.1" preserveAspectRatio="xMinYMin meet" width="58.01400408058562mm" height="42.02867141273332mm" viewBox="1.7004086086233627 1.7036557908541496 58.01400408058562 42.02867141273332" xcs:version="2.3.24"><style>svg * { vector-effect: non-scaling-stroke; stroke-width: 1px; }</style>
<path transform="matrix(0.206034,0,0,0.206034,-1.917919,-1.63832)" stroke="#fe0002" fill="none" d="m 18.674214,170.25494 c 0,0 -2.126728,1.23659 -0.500667,2.28493 5.838317,3.764 21.386328,12.88964 32.51742,14.23785 13.341749,1.61595 15.319762,1.69841 22.974666,1.23147 11.819529,-0.72097 34.979357,-6.19896 34.979357,-6.19896 0,0 5.17454,-0.62092 1.86284,10.14195 -3.31169,10.76289 -7.19344,16.07467 -4.55349,22.97462 2.12489,5.55401 23.8227,1.63548 24.88545,1.03489 0.54799,-0.30971 1.22372,-4.97744 -1.28743,-7.59211 -2.68391,-2.79458 -2.46122,-7.51732 -2.46122,-8.34524 0,-1.65583 2.2517,-15.10943 7.01226,-21.31879 4.7604,-6.20935 18.33723,1.91849 19.73386,5.17447 1.02829,2.39697 -0.99046,11.70804 -2.55464,14.69546 -1.50277,2.87011 -3.93258,16.14433 -2.27681,18.83505 1.65576,2.69073 25.05911,4.6475 26.90724,0 0.684,-1.72025 0.31367,-1.9048 -0.41781,-2.9413 -0.49791,-0.70558 -1.366,-2.05527 -1.36263,-2.28027 0,-0.225 0.13784,-0.23909 0.37539,-0.20987 0.23724,0.0292 0.57709,0.1017 0.99107,0.0499 1.65578,-0.20697 6.09853,-0.97643 9.72803,-2.06978 3.65431,-1.10083 3.96797,-3.09428 3.34708,-5.16407 -0.6209,-2.06978 -5.6239,-7.87558 -5.6239,-7.87558 0,0 -6.20942,-8.07216 -3.51861,-19.86993 2.69065,-11.79778 4.96747,-19.04203 6.83031,-19.04203 1.86284,0 5.79528,-1.24186 6.41633,5.17446 0.62089,6.41633 0.20691,9.10706 1.44885,12.00476 1.2418,2.89769 5.38146,5.17446 5.79528,7.03726 0.41399,1.8628 1.65593,21.93972 2.48389,25.0444 0.82781,3.10468 20.28387,4.13957 22.14655,1.03489 1.86284,-3.10467 2.69081,-5.38143 0.41398,-9.521 -2.27666,-4.13957 -10.7629,-23.80254 -12.00469,-26.0793 -1.24194,-2.27676 -1.75931,-10.34892 -1.65577,-13.24662 0.0919,-2.59179 -1.65593,-9.10706 -2.48374,-11.17683 -0.82796,-2.06978 -0.82796,-8.58645 -0.82796,-13.66059 0,-5.27795 -1.55239,-10.76289 -2.48374,-14.28152 -0.41214,-1.55673 -1.30948,-7.51146 -0.55565,-13.51626 0.80836,-6.44016 3.16421,-13.281111 4.7987,-16.28864 2.44422,-4.497633 12.49571,-29.661497 23.72712,-40.592899 7.7468,-7.539852 14.14995,-14.152915 28.43147,-15.601764 14.28152,-1.448849 19.97342,2.380255 23.90601,5.277952 3.93259,2.897698 5.72682,3.18888 8.41287,2.117849 2.67411,-1.06619 5.8812,-6.286838 4.6267,-7.292312 -3.17294,-2.543292 -5.003,-4.394614 -5.38145,-6.623312 -0.31367,-1.847818 0.21273,-5.539099 -1.4363,-7.461627 -3.19852,-3.729052 -5.17959,-4.848393 -13.98347,-3.715211 -8.02983,1.033537 -18.73163,-1.448851 -36.11778,5.38144 -17.3863,6.83029 -31.09562,26.079683 -33.21025,29.243237 -2.41114,3.607154 -17.32259,28.844898 -22.2461,32.783725 -5.48836,4.390669 -14.64082,9.088769 -16.32386,10.259618 -1.69911,1.181983 -24.11735,11.526324 -35.21674,18.892834 -8.97909,5.95934 -17.53654,11.11288 -25.14994,20.31585 -6.65908,8.04957 -12.046815,13.66799 -19.026147,19.46532 -4.670041,3.87907 -9.693873,7.44085 -15.139191,10.12493 -3.619695,1.78421 -11.46727,3.88238 -11.46727,3.88238 -4.508308,1.38713 -15.352844,2.98017 -22.611532,3.46908 -3.68831,0.24843 -20.090473,-0.31907 -22.873936,-0.20479 z" fill-rule="nonzero"></path><path transform="matrix(0.206034,0,0,0.206034,-1.917919,-1.63832)" stroke="none" fill="#000000" d="m 210.06966,85.716779 c 0,0 2.53749,-10.40337 4.55885,-15.339903 1.44717,-3.534525 3.03648,-6.589078 5.37609,-10.118444 8.66911,-13.076957 12.02262,-16.046876 20.05367,-21.689876 4.11945,-2.894487 9.54087,-4.290483 14.33068,-4.770905 1.40092,-0.140521 4.21716,-0.239448 4.21716,-0.239448 0,0 -6.3445,0.717015 -11.26005,3.438729 -1.94524,1.077045 -5.85869,3.567317 -7.92722,5.254369 -4.64875,3.791282 -8.92349,8.419504 -12.6847,13.235702 -2.45571,3.144442 -5.80202,9.218096 -6.37728,10.128842 -1.07653,1.704246 -2.50395,4.203818 -4.77756,8.800819 -2.43242,4.917832 -4.49712,10.180971 -5.50964,11.300115 z" fill-rule="nonzero"></path><path transform="matrix(0.206034,0,0,0.206034,-1.917919,-1.63832)" stroke="none" fill="#000000" d="m 160.62913,100.1687 c 0,0 8.14837,2.20986 7.52733,6.03895 -0.6209,3.8291 -1.75931,0.82792 -1.75931,0.82792 0,0 -2.79418,-4.65701 -5.17439,-3.72561 -2.38035,0.93141 0.121,1.85177 0.69855,2.41906 1.64367,1.6137 3.85494,2.96238 2.82007,7.51591 -1.03488,4.55352 -2.87337,-0.0455 -4.13951,-1.44885 -1.7371,-1.92515 -4.96762,-5.07098 -5.89897,-5.07098 0,0 -1.24179,0.41397 -0.20691,1.24187 1.03487,0.82792 3.20816,2.69073 4.13951,5.48494 0.93134,2.7942 0.0413,6.09663 -0.36222,6.98552 -0.42593,0.93768 -0.98311,2.38025 -1.50062,1.75932 -0.51737,-0.62094 -2.56108,-3.98874 -4.19128,-6.10587 -1.60263,-2.08131 -5.84718,-6.77854 -6.46808,-4.50178 -0.62089,2.27676 1.02569,2.51726 2.89772,6.20935 1.86282,3.67387 1.19077,5.84544 -0.41398,9.93498 -1.60401,4.08781 -3.02928,-1.33194 -3.72553,-3.10468 -1.20151,-3.05891 -5.07101,-8.69311 -6.20942,-7.65821 -1.13841,1.03489 0.25332,2.4463 1.34533,4.81224 1.24194,2.69073 3.44203,9.03357 2.43197,12.36697 -0.85936,2.83658 -1.29356,1.19014 -3.25978,-0.87966 -1.96638,-2.06977 -6.26118,-8.33088 -8.07226,-10.0902 -1.36876,-1.32964 -2.88454,-2.05816 -3.41508,-0.20698 -0.28977,1.01078 0.78064,1.42831 3.41508,4.50179 2.48374,2.8977 3.20112,3.3359 4.45011,9.21054 1.39709,6.57157 -1.03488,3.88084 -2.06991,3.25992 -1.03487,-0.62094 -7.55458,-7.50298 -9.10697,-8.58962 -1.79653,-1.25753 -3.82906,-2.79421 -5.27792,-1.24187 -1.44886,1.55233 0.72443,2.38025 2.58727,3.82911 1.86268,1.44884 9.72787,8.5896 7.96856,15.21293 -1.7593,6.6233 -4.75213,-4.42956 -7.4512,-6.20936 -3.42595,-2.2591 -9.72803,-6.8303 -10.96982,-5.58843 -1.24194,1.24187 -0.0429,0.84727 1.86284,2.27677 1.65577,1.24187 7.65812,3.72561 5.58837,11.38381 -1.24838,4.61919 -2.29046,1.19563 -4.05405,-1.88272 -1.16031,-2.02528 -3.17263,-3.5524 -3.60423,-3.91267 -0.78645,-0.65652 -6.77854,-3.4669 -6.36456,-1.70757 0.41398,1.75932 1.28912,2.00854 2.12152,3.72562 0.82796,1.70756 1.96637,5.48492 0.82796,6.93377 -0.61875,0.7874 -1.9826,-1.51855 -3.78464,-3.07684 -1.51395,-1.30898 -2.53198,-1.67502 -3.977009,-1.73541 -0.882946,-0.0369 -2.743489,0.002 -2.509619,0.85377 0.580003,2.11383 1.78519,2.14742 1.474742,6.1835 -0.310601,4.03608 -3.829213,-2.27677 -5.174538,-2.38026 -1.345325,-0.10353 -1.999761,0.59176 -1.86284,1.34537 0.221005,1.21583 0.621049,1.65582 -0.206914,3.62211 -0.827963,1.9663 -1.955499,-1.41808 -3.104631,-1.55233 -0.598381,-0.0698 -1.408118,-0.0755 -1.759459,0.41395 -0.42409,0.59126 0.36007,0.64243 0.207067,2.17328 -0.1553,1.55234 -3.053017,-0.62099 -3.053017,-0.62099 0.07198,0.0482 12.540742,-9.49731 17.953588,-15.06104 4.67571,-4.80598 8.69622,-10.22991 13.458,-14.95058 2.0503,-2.03257 4.21057,-3.9631 6.48724,-5.73849 5.25693,-4.09961 10.86353,-7.78811 16.50167,-11.29955 5.86497,-3.65276 11.04885,-6.19937 11.04885,-6.19937 l 11.36372,-6.02184" fill-rule="nonzero"></path><path transform="matrix(0.206034,0,0,0.206034,-1.917919,-1.63832)" stroke="none" fill="#000000" d="m 90.953607,163.6442 c 0.14703,-0.98959 0.102614,-2.27678 2.173287,-2.06979 2.069754,0.20698 2.477762,1.57457 2.380202,2.7942 -0.09802,1.21963 -1.86284,2.38026 -2.794183,2.38026 -0.931497,0 -1.933751,-1.92802 -1.759306,-3.10467 z" fill-rule="nonzero"></path><path transform="matrix(0.206034,0,0,0.206034,-1.917919,-1.63832)" stroke="none" fill="#000000" d="m 78.534777,168.19772 c -0.65459,-0.93136 -0.774052,-2.58044 0,-3.41514 1.246845,-1.34439 4.17504,-1.69688 5.484986,-0.41397 1.357577,1.32952 1.966373,5.58843 -0.310448,5.69192 -2.276821,0.10353 -4.120363,-0.363 -5.174538,-1.86281 z" fill-rule="nonzero"></path><path transform="matrix(0.206034,0,0,0.206034,-1.917919,-1.63832)" stroke="none" fill="#000000" d="m 75.844128,172.2338 c -0.62886,-0.84195 -0.517515,-2.38025 1.241791,-2.8977 1.759459,-0.51744 1.586392,1.59789 2.276821,2.48375 0.519965,0.66715 -2.811949,1.36013 -3.518612,0.41395 z" fill-rule="nonzero"></path><path transform="matrix(0.206034,0,0,0.206034,-1.917919,-1.63832)" stroke="none" fill="#000000" d="m 72.221982,168.19772 c -0.04901,-0.96529 0,-2.8977 1.655772,-2.38025 1.655926,0.51744 1.655926,1.9663 1.655926,1.9663 0,0 -0.468811,1.13838 -2.690803,1.13838 -0.310447,0 -0.604814,-0.4068 -0.620895,-0.72443 z" fill-rule="nonzero"></path><path transform="matrix(0.206034,0,0,0.206034,-1.917919,-1.63832)" stroke="none" fill="#000000" d="m 61.045096,169.85355 c 0,-1.17031 0.668987,-1.23452 3.152876,-1.54499 2.483735,-0.31047 2.461527,-1.2602 3.056539,-0.42131 0.874676,1.23322 0.517515,3.20817 -2.069754,4.03609 -2.587269,0.82791 -4.145787,-0.52708 -4.139661,-2.06979 z" fill-rule="nonzero"></path><path transform="matrix(0.206034,0,0,0.206034,-1.917919,-1.63832)" stroke="none" fill="#000000" d="m 45.418256,173.1652 c 1.374271,-1.63194 2.431968,-3.00119 6.209414,-1.55233 4.406766,1.69028 0.68951,6.11114 -1.397091,5.58841 -1.81046,-0.45354 -3.834727,0.42092 -5.019237,-1.24186 -0.542021,-0.76067 -0.394684,-2.07982 0.206914,-2.79422 z" fill-rule="nonzero"></path><path transform="matrix(0.206034,0,0,0.206034,-1.917919,-1.63832)" stroke="none" fill="#000000" d="m 55.249816,172.95823 c 0.460847,-0.66038 1.688854,-0.82692 2.380202,-0.41397 0.842819,0.50344 1.341036,1.90196 0.931343,2.79422 -0.341998,0.74519 -1.498634,1.19014 -2.276668,0.9314 -0.381818,-0.12697 -0.479226,-0.6584 -0.621048,-1.03489 -0.2717,-0.72187 -0.855378,-1.64424 -0.413829,-2.27676 z" fill-rule="nonzero"></path><path transform="matrix(0.206034,0,0,0.206034,-1.917919,-1.63832)" stroke="none" fill="#000000" d="m 283.57043,30.070423 c 0.17107,0.160549 0.80744,0.981909 0.88264,1.178646 0,0 -0.58628,-0.902487 -0.35349,-0.359165 0.2328,0.543318 1.56894,3.211621 3.89752,5.022681 2.32844,1.811064 6.49398,3.234039 6.49398,3.234039 l 1.009,0.232851 c 0,0 0.23279,-0.491573 -0.49164,-0.569191 -0.72442,-0.07762 -3.36024,-1.114328 -4.24304,-1.629952 -0.51629,-0.301525 -2.50471,-1.387839 -3.78694,-2.655013 -1.04085,-1.028806 -2.15322,-2.518849 -2.2344,-2.878237 -0.18103,-0.802042 0.1674,-0.470016 0.1674,-0.470016 1.31286,0.145835 0.7033,0.02009 0.24475,-0.0416 -1.07838,-0.124072 -1.91537,-1.667806 -2.15583,-1.943404 z" fill-rule="nonzero"></path><path transform="matrix(0.206034,0,0,0.206034,-1.917919,-1.63832)" stroke="none" fill="#000000" d="m 54.763086,184.54501 c 1.460498,-0.36024 7.535748,-0.0565 11.279193,-0.43554 5.504284,-0.55742 11.005504,-1.37174 16.376847,-2.69763 5.491419,-1.35555 10.821563,-3.32579 16.103157,-5.35015 4.271987,-1.63736 8.572767,-3.78965 12.580567,-5.48677 4.28914,-1.81625 8.02477,-3.22042 13.13652,-4.92436 0.67848,-0.22615 4.01606,-0.96734 5.94476,-1.08151 2.2082,-0.1308 5.0975,0.48111 6.04998,-0.28645 1.18772,-0.95709 -1.96959,-3.4959 -0.77819,-4.37741 0.2864,-0.21195 0.79794,0.16534 0.95171,0.48675 1.56511,3.2686 2.69433,6.25401 4.6339,9.02383 2.10191,3.00188 5.06534,5.30086 7.47265,8.06391 1.29997,1.49206 -2.70734,-1.45646 -7.47648,-2.30161 -2.75727,-0.48861 -4.2069,-0.84949 -6.33914,-0.85706 -3.53913,-0.0122 -7.05392,0.69152 -10.53179,1.34782 -5.2116,0.9835 -10.26928,2.66037 -15.43295,3.87087 -6.9003,1.61761 -13.800601,3.26373 -20.773653,4.53182 -5.31636,0.9668 -10.642063,2.1054 -16.040516,2.34216 -5.183727,0.22735 -13.977807,-0.0361 -15.540614,-0.89192 -0.6915,-0.3786 -1.685944,-1.03234 -1.685944,-1.03234" fill-rule="nonzero"></path><path transform="matrix(0.206034,0,0,0.206034,-1.917919,-1.63832)" stroke="none" fill="#000000" d="m 163.24136,137.35071 c -0.45686,-0.33035 -0.71064,0.98528 0.19911,2.88359 0.85323,1.78053 2.83584,4.03634 3.52887,7.02337 0.96749,4.16977 2.92513,6.6279 3.43223,11.71719 0.6644,6.66659 -0.3083,15.99575 -0.67343,20.94368 -0.53007,7.18281 -2.24618,13.89464 -2.02947,19.83278 0.34705,9.50988 6.45937,12.80869 5.83173,11.77446 -0.43527,-0.71706 -0.17046,-0.29965 -0.55886,-0.90785 -0.38473,-0.60242 -1.59758,-2.50512 -1.92074,-3.3733 -0.62074,-1.66693 -0.85629,-3.46912 -0.99659,-5.24231 -0.33112,-4.18181 -0.0306,-8.40391 0.37585,-12.57904 0.6258,-6.42698 0.15009,-13.40228 3.16804,-19.11133 0.46927,-0.88793 1.43752,-1.40348 2.17834,-2.0815 0.95462,-0.87368 2.00466,-1.64377 2.91992,-2.55871 1.04683,-1.04664 2.73614,-3.03968 2.92789,-3.3393 1.17088,-1.82945 2.0062,-4.09795 3.39655,-5.19562 1.39035,-1.09767 3.32027,-0.54797 4.53557,-1.59217 3.84637,-3.30493 5.19644,-7.62922 4.46971,-15.07524 -0.59838,-6.13095 -0.77865,-10.597 -2.85989,-13.0251 -0.76118,-0.88797 -0.67496,-0.3268 -1.0606,0.33019 -0.52564,0.89546 4.52469,11.28269 1.71918,15.40308 -1.37918,2.02562 -5.56141,4.61021 -7.6837,4.39068 -2.12213,-0.21954 -6.55049,0.0698 -9.513,1.60991 -1.04559,0.54346 -2.19473,2.17545 -3.18978,1.52368 -0.84818,-0.55561 -1.2931,-3.10621 -2.12734,-4.56201 -1.77018,-3.08916 -3.18412,-6.70319 -6.06959,-8.78913 z" fill-rule="nonzero"></path><path transform="matrix(0.206034,0,0,0.206034,-1.917919,-1.63832)" stroke="none" fill="#000000" d="m 125.67199,207.72054 c 0.10415,2.15187 0.51215,5.04927 -0.51231,6.43965 -1.02446,1.39038 3.08319,0.33811 4.3818,-0.0724 1.02339,-0.32351 0.82199,-2.08742 -0.026,-3.27159 -0.78309,-1.09389 -3.92218,-4.71067 -3.84361,-3.09565 z" fill-rule="nonzero"></path><path transform="matrix(0.206034,0,0,0.206034,-1.917919,-1.63832)" stroke="none" fill="#000000" d="m 164.38314,217.96543 c -0.36895,0.8643 4.46313,0.36122 6.00051,-0.36589 1.35712,-0.64187 -4.30568,-4.37212 -4.33187,-4.03366 -0.12099,1.56727 -1.05295,2.95701 -1.66864,4.39955 z" fill-rule="nonzero"></path><path transform="matrix(0.206034,0,0,0.206034,-1.917919,-1.63832)" stroke="none" fill="#000000" d="m 170.60328,211.4526 c 1.42711,3.16364 -0.0169,5.53161 -0.0169,5.53161 0,0 -0.495,0.98122 1.04177,0.61533 1.53677,-0.36587 3.68938,-0.15085 3.40022,-1.33342 -0.54477,-2.22705 -5.32095,-6.80012 -4.42468,-4.81352 z" fill-rule="nonzero"></path><path transform="matrix(0.206034,0,0,0.206034,-1.917919,-1.63832)" stroke="none" fill="#000000" d="m 183.18982,201.93947 c 0.80238,1.86693 1.69406,3.29732 1.53677,5.04929 -0.0766,0.85585 1.9339,0.2945 2.56123,-0.29272 0.3982,-0.37273 0.58536,-0.87813 0.29268,-1.60991 -0.29268,-0.73179 -5.10164,-4.80096 -4.39068,-3.14666 z" fill-rule="nonzero"></path><path transform="matrix(0.206034,0,0,0.206034,-1.917919,-1.63832)" stroke="none" fill="#000000" d="m 221.94754,198.9658 c -0.17643,2.75073 0.43083,6.60687 -0.86977,7.54728 -1.18926,0.85984 3.53071,0.10982 3.75034,-1.06106 0.21947,-1.17085 -2.72358,-8.93431 -2.88057,-6.48622 z" fill-rule="nonzero"></path><path transform="matrix(0.206034,0,0,0.206034,-1.917919,-1.63832)" stroke="none" fill="#000000" d="m 283.95592,26.458747 c 0.82169,1.966295 3.91315,4.862972 5.34194,3.512542 1.89378,-1.789891 2.26855,-4.244322 2.04892,-5.049279 -0.21947,-0.804957 -0.51215,-2.268517 -2.7807,-2.561228 -2.26855,-0.292712 -3.35152,1.252704 -4.31748,2.634406 -0.28517,0.407741 -0.48458,1.004522 -0.29268,1.463559 z" fill-rule="nonzero"></path><path transform="matrix(0.206034,0,0,0.206034,-1.917919,-1.63832)" stroke="none" fill="#000000" d="m 36.918389,173.19178 c 0.240608,-0.92585 1.635249,-1.33547 2.587269,-1.24187 0.858287,0.0844 3.725526,0.10353 2.069754,1.55233 -1.655773,1.44884 -2.225821,1.78756 -3.415079,1.44886 -0.690428,-0.19663 -1.422515,-1.06459 -1.241944,-1.75932 z" fill-rule="nonzero"></path></svg>